<svg xmlns="http://www.w3.org/2000/svg" version="1.1" xmlns:xlink="http://www.w3.org/1999/xlink" xmlns:svgjs="http://svgjs.com/svgjs" width="1440" height="560" preserveAspectRatio="none" viewBox="0 0 1440 560"><g mask="url(&quot;#SvgjsMask1004&quot;)" fill="none"><rect width="1440" height="560" x="0" y="0" fill="#0e2a47"></rect><path d="M1262.16 471.93L1277.17 471.93L1277.17 486.94L1262.16 486.94z" stroke="#e73635"></path><path d="M1195.69 444L1230.34 444L1230.34 478.65L1195.69 478.65z" fill="#e73635"></path><path d="M449.64 102.13 a49.33 49.33 0 1 0 98.66 0 a49.33 49.33 0 1 0 -98.66 0z" stroke="#e73635"></path><path d="M1003.12 141.26L1055.59 141.26L1055.59 155.63L1003.12 155.63z" fill="#d3b714"></path><path d="M356.92 60.72L385.22 60.72L385.22 89.02L356.92 89.02z" fill="#e73635"></path><path d="M1401.01 395.69L1452.21 395.69L1452.21 446.89L1401.01 446.89z" fill="#d3b714"></path><path d="M599.85 215.7a24.1 24.1 0 1 0 47.9 5.38z" stroke="#037b0b"></path><path d="M1117.48 441.22 a16.8 16.8 0 1 0 33.6 0 a16.8 16.8 0 1 0 -33.6 0z" fill="#e73635"></path><path d="M700.09 6.27 a30.3 30.3 0 1 0 60.6 0 a30.3 30.3 0 1 0 -60.6 0z" fill="#d3b714"></path><path d="M541.29 203.87L546.68 203.87L546.68 232.96L541.29 232.96z" fill="#e73635"></path><path d="M1235.51 472.74L1249.12 472.74L1249.12 476.11L1235.51 476.11z" stroke="#e73635"></path><path d="M1390.42 41.68L1418.45 41.68L1418.45 69.71L1390.42 69.71z" stroke="#037b0b"></path><path d="M1037.89 542.05L1070.69 542.05L1070.69 574.85L1037.89 574.85z" fill="#037b0b"></path><path d="M1319.85 40.35L1337.62 40.35L1337.62 58.12L1319.85 58.12z" stroke="#d3b714"></path><path d="M1244.89 228.97 a19.43 19.43 0 1 0 38.86 0 a19.43 19.43 0 1 0 -38.86 0z" stroke="#037b0b"></path><path d="M45.9 549.52a28.06 28.06 0 1 0 52.92-18.68z" fill="#e73635"></path><path d="M719.65 7.12L748.03 7.12L748.03 26.45L719.65 26.45z" stroke="#e73635"></path><path d="M390.14 3.2L405.92 3.2L405.92 18.98L390.14 18.98z" stroke="#d3b714"></path><path d="M359.55 44.66a6.72 6.72 0 1 0 13.3-1.98z" fill="#037b0b"></path><path d="M712.11 312.51L750.84 312.51L750.84 320.77L712.11 320.77z" stroke="#d3b714"></path><path d="M231.28 13.65a15.15 15.15 0 1 0-26.06-15.46z" stroke="#e73635"></path><path d="M654.22 385.97a32.34 32.34 0 1 0-48.8 42.45z" fill="#e73635"></path><path d="M68.92 19.15a27.01 27.01 0 1 0-52.39-13.16z" stroke="#e73635"></path><path d="M1146.1 384.58a15.24 15.24 0 1 0-29.48-7.74z" stroke="#e73635"></path><path d="M1401.26 154.27L1453.86 154.27L1453.86 206.87L1401.26 206.87z" fill="#e73635"></path><path d="M155.16 79.31a41.95 41.95 0 1 0-52.75-65.24z" stroke="#e73635"></path><path d="M189.07 39.59a24.9 24.9 0 1 0-49.37 6.53z" stroke="#e73635"></path><path d="M145.01 64.78L152.55 64.78L152.55 118.73L145.01 118.73z" fill="#e73635"></path><path d="M625.91 280.67a45.89 45.89 0 1 0-66.92 62.81z" stroke="#e73635"></path><path d="M1114.8 130.37L1163.76 130.37L1163.76 179.33L1114.8 179.33z" fill="#d3b714"></path><path d="M540.65 313.28L559.92 313.28L559.92 314.32L540.65 314.32z" stroke="#e73635"></path><path d="M1316.3 244.94 a51.84 51.84 0 1 0 103.68 0 a51.84 51.84 0 1 0 -103.68 0z" stroke="#d3b714"></path><path d="M1105.78 111.7L1106.43 111.7L1106.43 167.26L1105.78 167.26z" fill="#e73635"></path></g><defs><mask id="SvgjsMask1004"><rect width="1440" height="560" fill="#ffffff"></rect></mask></defs></svg>