<svg xmlns="http://www.w3.org/2000/svg" version="1.1" xmlns:xlink="http://www.w3.org/1999/xlink" xmlns:svgjs="http://svgjs.com/svgjs" width="1440" height="560" preserveAspectRatio="none" viewBox="0 0 1440 560"><g mask="url(&quot;#SvgjsMask1000&quot;)" fill="none"><rect width="1440" height="560" x="0" y="0" fill="#0e2a47"></rect><path d="M37.87 -62.25L102.82 -24.75L102.82 50.25L37.87 87.75L-27.08 50.25L-27.08 -24.75zM102.82 275.25L167.78 312.75L167.78 387.75L102.82 425.25L37.87 387.75L37.87 312.75zM102.82 500.25L167.78 537.75L167.78 612.75L102.82 650.25L37.87 612.75L37.87 537.75zM232.73 50.25L297.69 87.75L297.69 162.75L232.73 200.25L167.78 162.75L167.78 87.75zM232.73 275.25L297.69 312.75L297.69 387.75L232.73 425.25L167.78 387.75L167.78 312.75zM232.73 500.25L297.69 537.75L297.69 612.75L232.73 650.25L167.78 612.75L167.78 537.75zM362.64 50.25L427.59 87.75L427.59 162.75L362.64 200.25L297.69 162.75L297.69 87.75zM362.64 275.25L427.59 312.75L427.59 387.75L362.64 425.25L297.69 387.75L297.69 312.75zM362.64 500.25L427.59 537.75L427.59 612.75L362.64 650.25L297.69 612.75L297.69 537.75zM492.55 50.25L557.5 87.75L557.5 162.75L492.55 200.25L427.59 162.75L427.59 87.75zM427.59 162.75L492.55 200.25L492.55 275.25L427.59 312.75L362.64 275.25L362.64 200.25zM427.59 387.75L492.55 425.25L492.55 500.25L427.59 537.75L362.64 500.25L362.64 425.25zM557.5 -62.25L622.45 -24.75L622.45 50.25L557.5 87.75L492.55 50.25L492.55 -24.75zM557.5 162.75L622.45 200.25L622.45 275.25L557.5 312.75L492.55 275.25L492.55 200.25zM687.41 -62.25L752.36 -24.75L752.36 50.25L687.41 87.75L622.45 50.25L622.45 -24.75zM687.41 162.75L752.36 200.25L752.36 275.25L687.41 312.75L622.45 275.25L622.45 200.25zM687.41 387.75L752.36 425.25L752.36 500.25L687.41 537.75L622.45 500.25L622.45 425.25zM817.31 -62.25L882.27 -24.75L882.27 50.25L817.31 87.75L752.36 50.25L752.36 -24.75zM882.27 50.25L947.22 87.75L947.22 162.75L882.27 200.25L817.31 162.75L817.31 87.75zM947.22 162.75L1012.18 200.25L1012.18 275.25L947.22 312.75L882.27 275.25L882.27 200.25zM1012.18 275.25L1077.13 312.75L1077.13 387.75L1012.18 425.25L947.22 387.75L947.22 312.75zM947.22 387.75L1012.18 425.25L1012.18 500.25L947.22 537.75L882.27 500.25L882.27 425.25zM1077.13 387.75L1142.08 425.25L1142.08 500.25L1077.13 537.75L1012.18 500.25L1012.18 425.25zM1142.08 500.25L1207.04 537.75L1207.04 612.75L1142.08 650.25L1077.13 612.75L1077.13 537.75zM1207.04 162.75L1271.99 200.25L1271.99 275.25L1207.04 312.75L1142.08 275.25L1142.08 200.25zM1271.99 500.25L1336.94 537.75L1336.94 612.75L1271.99 650.25L1207.04 612.75L1207.04 537.75zM1401.9 275.25L1466.85 312.75L1466.85 387.75L1401.9 425.25L1336.94 387.75L1336.94 312.75zM1531.81 50.25L1596.76 87.75L1596.76 162.75L1531.81 200.25L1466.85 162.75L1466.85 87.75zM1466.85 387.75L1531.81 425.25L1531.81 500.25L1466.85 537.75L1401.9 500.25L1401.9 425.25z" stroke="#03305d" stroke-width="2"></path><path d="M30.37 -62.25 a7.5 7.5 0 1 0 15 0 a7.5 7.5 0 1 0 -15 0zM95.32 -24.75 a7.5 7.5 0 1 0 15 0 a7.5 7.5 0 1 0 -15 0zM95.32 50.25 a7.5 7.5 0 1 0 15 0 a7.5 7.5 0 1 0 -15 0zM30.37 87.75 a7.5 7.5 0 1 0 15 0 a7.5 7.5 0 1 0 -15 0zM-34.58 50.25 a7.5 7.5 0 1 0 15 0 a7.5 7.5 0 1 0 -15 0zM-34.58 -24.75 a7.5 7.5 0 1 0 15 0 a7.5 7.5 0 1 0 -15 0zM95.32 275.25 a7.5 7.5 0 1 0 15 0 a7.5 7.5 0 1 0 -15 0zM160.28 312.75 a7.5 7.5 0 1 0 15 0 a7.5 7.5 0 1 0 -15 0zM160.28 387.75 a7.5 7.5 0 1 0 15 0 a7.5 7.5 0 1 0 -15 0zM95.32 425.25 a7.5 7.5 0 1 0 15 0 a7.5 7.5 0 1 0 -15 0zM30.37 387.75 a7.5 7.5 0 1 0 15 0 a7.5 7.5 0 1 0 -15 0zM30.37 312.75 a7.5 7.5 0 1 0 15 0 a7.5 7.5 0 1 0 -15 0zM95.32 500.25 a7.5 7.5 0 1 0 15 0 a7.5 7.5 0 1 0 -15 0zM160.28 537.75 a7.5 7.5 0 1 0 15 0 a7.5 7.5 0 1 0 -15 0zM160.28 612.75 a7.5 7.5 0 1 0 15 0 a7.5 7.5 0 1 0 -15 0zM95.32 650.25 a7.5 7.5 0 1 0 15 0 a7.5 7.5 0 1 0 -15 0zM30.37 612.75 a7.5 7.5 0 1 0 15 0 a7.5 7.5 0 1 0 -15 0zM30.37 537.75 a7.5 7.5 0 1 0 15 0 a7.5 7.5 0 1 0 -15 0zM225.23 50.25 a7.5 7.5 0 1 0 15 0 a7.5 7.5 0 1 0 -15 0zM290.19 87.75 a7.5 7.5 0 1 0 15 0 a7.5 7.5 0 1 0 -15 0zM290.19 162.75 a7.5 7.5 0 1 0 15 0 a7.5 7.5 0 1 0 -15 0zM225.23 200.25 a7.5 7.5 0 1 0 15 0 a7.5 7.5 0 1 0 -15 0zM160.28 162.75 a7.5 7.5 0 1 0 15 0 a7.5 7.5 0 1 0 -15 0zM160.28 87.75 a7.5 7.5 0 1 0 15 0 a7.5 7.5 0 1 0 -15 0zM225.23 275.25 a7.5 7.5 0 1 0 15 0 a7.5 7.5 0 1 0 -15 0zM290.19 312.75 a7.5 7.5 0 1 0 15 0 a7.5 7.5 0 1 0 -15 0zM290.19 387.75 a7.5 7.5 0 1 0 15 0 a7.5 7.5 0 1 0 -15 0zM225.23 425.25 a7.5 7.5 0 1 0 15 0 a7.5 7.5 0 1 0 -15 0zM225.23 500.25 a7.5 7.5 0 1 0 15 0 a7.5 7.5 0 1 0 -15 0zM290.19 537.75 a7.5 7.5 0 1 0 15 0 a7.5 7.5 0 1 0 -15 0zM290.19 612.75 a7.5 7.5 0 1 0 15 0 a7.5 7.5 0 1 0 -15 0zM225.23 650.25 a7.5 7.5 0 1 0 15 0 a7.5 7.5 0 1 0 -15 0zM355.14 50.25 a7.5 7.5 0 1 0 15 0 a7.5 7.5 0 1 0 -15 0zM420.09 87.75 a7.5 7.5 0 1 0 15 0 a7.5 7.5 0 1 0 -15 0zM420.09 162.75 a7.5 7.5 0 1 0 15 0 a7.5 7.5 0 1 0 -15 0zM355.14 200.25 a7.5 7.5 0 1 0 15 0 a7.5 7.5 0 1 0 -15 0zM355.14 275.25 a7.5 7.5 0 1 0 15 0 a7.5 7.5 0 1 0 -15 0zM420.09 312.75 a7.5 7.5 0 1 0 15 0 a7.5 7.5 0 1 0 -15 0zM420.09 387.75 a7.5 7.5 0 1 0 15 0 a7.5 7.5 0 1 0 -15 0zM355.14 425.25 a7.5 7.5 0 1 0 15 0 a7.5 7.5 0 1 0 -15 0zM355.14 500.25 a7.5 7.5 0 1 0 15 0 a7.5 7.5 0 1 0 -15 0zM420.09 537.75 a7.5 7.5 0 1 0 15 0 a7.5 7.5 0 1 0 -15 0zM420.09 612.75 a7.5 7.5 0 1 0 15 0 a7.5 7.5 0 1 0 -15 0zM355.14 650.25 a7.5 7.5 0 1 0 15 0 a7.5 7.5 0 1 0 -15 0zM485.05 50.25 a7.5 7.5 0 1 0 15 0 a7.5 7.5 0 1 0 -15 0zM550 87.75 a7.5 7.5 0 1 0 15 0 a7.5 7.5 0 1 0 -15 0zM550 162.75 a7.5 7.5 0 1 0 15 0 a7.5 7.5 0 1 0 -15 0zM485.05 200.25 a7.5 7.5 0 1 0 15 0 a7.5 7.5 0 1 0 -15 0zM485.05 275.25 a7.5 7.5 0 1 0 15 0 a7.5 7.5 0 1 0 -15 0zM485.05 425.25 a7.5 7.5 0 1 0 15 0 a7.5 7.5 0 1 0 -15 0zM485.05 500.25 a7.5 7.5 0 1 0 15 0 a7.5 7.5 0 1 0 -15 0zM550 -62.25 a7.5 7.5 0 1 0 15 0 a7.5 7.5 0 1 0 -15 0zM614.95 -24.75 a7.5 7.5 0 1 0 15 0 a7.5 7.5 0 1 0 -15 0zM614.95 50.25 a7.5 7.5 0 1 0 15 0 a7.5 7.5 0 1 0 -15 0zM485.05 -24.75 a7.5 7.5 0 1 0 15 0 a7.5 7.5 0 1 0 -15 0zM614.95 200.25 a7.5 7.5 0 1 0 15 0 a7.5 7.5 0 1 0 -15 0zM614.95 275.25 a7.5 7.5 0 1 0 15 0 a7.5 7.5 0 1 0 -15 0zM550 312.75 a7.5 7.5 0 1 0 15 0 a7.5 7.5 0 1 0 -15 0zM679.91 -62.25 a7.5 7.5 0 1 0 15 0 a7.5 7.5 0 1 0 -15 0zM744.86 -24.75 a7.5 7.5 0 1 0 15 0 a7.5 7.5 0 1 0 -15 0zM744.86 50.25 a7.5 7.5 0 1 0 15 0 a7.5 7.5 0 1 0 -15 0zM679.91 87.75 a7.5 7.5 0 1 0 15 0 a7.5 7.5 0 1 0 -15 0zM679.91 162.75 a7.5 7.5 0 1 0 15 0 a7.5 7.5 0 1 0 -15 0zM744.86 200.25 a7.5 7.5 0 1 0 15 0 a7.5 7.5 0 1 0 -15 0zM744.86 275.25 a7.5 7.5 0 1 0 15 0 a7.5 7.5 0 1 0 -15 0zM679.91 312.75 a7.5 7.5 0 1 0 15 0 a7.5 7.5 0 1 0 -15 0zM679.91 387.75 a7.5 7.5 0 1 0 15 0 a7.5 7.5 0 1 0 -15 0zM744.86 425.25 a7.5 7.5 0 1 0 15 0 a7.5 7.5 0 1 0 -15 0zM744.86 500.25 a7.5 7.5 0 1 0 15 0 a7.5 7.5 0 1 0 -15 0zM679.91 537.75 a7.5 7.5 0 1 0 15 0 a7.5 7.5 0 1 0 -15 0zM614.95 500.25 a7.5 7.5 0 1 0 15 0 a7.5 7.5 0 1 0 -15 0zM614.95 425.25 a7.5 7.5 0 1 0 15 0 a7.5 7.5 0 1 0 -15 0zM809.81 -62.25 a7.5 7.5 0 1 0 15 0 a7.5 7.5 0 1 0 -15 0zM874.77 -24.75 a7.5 7.5 0 1 0 15 0 a7.5 7.5 0 1 0 -15 0zM874.77 50.25 a7.5 7.5 0 1 0 15 0 a7.5 7.5 0 1 0 -15 0zM809.81 87.75 a7.5 7.5 0 1 0 15 0 a7.5 7.5 0 1 0 -15 0zM939.72 87.75 a7.5 7.5 0 1 0 15 0 a7.5 7.5 0 1 0 -15 0zM939.72 162.75 a7.5 7.5 0 1 0 15 0 a7.5 7.5 0 1 0 -15 0zM874.77 200.25 a7.5 7.5 0 1 0 15 0 a7.5 7.5 0 1 0 -15 0zM809.81 162.75 a7.5 7.5 0 1 0 15 0 a7.5 7.5 0 1 0 -15 0zM1004.68 200.25 a7.5 7.5 0 1 0 15 0 a7.5 7.5 0 1 0 -15 0zM1004.68 275.25 a7.5 7.5 0 1 0 15 0 a7.5 7.5 0 1 0 -15 0zM939.72 312.75 a7.5 7.5 0 1 0 15 0 a7.5 7.5 0 1 0 -15 0zM874.77 275.25 a7.5 7.5 0 1 0 15 0 a7.5 7.5 0 1 0 -15 0zM1069.63 312.75 a7.5 7.5 0 1 0 15 0 a7.5 7.5 0 1 0 -15 0zM1069.63 387.75 a7.5 7.5 0 1 0 15 0 a7.5 7.5 0 1 0 -15 0zM1004.68 425.25 a7.5 7.5 0 1 0 15 0 a7.5 7.5 0 1 0 -15 0zM939.72 387.75 a7.5 7.5 0 1 0 15 0 a7.5 7.5 0 1 0 -15 0zM1004.68 500.25 a7.5 7.5 0 1 0 15 0 a7.5 7.5 0 1 0 -15 0zM939.72 537.75 a7.5 7.5 0 1 0 15 0 a7.5 7.5 0 1 0 -15 0zM874.77 500.25 a7.5 7.5 0 1 0 15 0 a7.5 7.5 0 1 0 -15 0zM874.77 425.25 a7.5 7.5 0 1 0 15 0 a7.5 7.5 0 1 0 -15 0zM1134.58 425.25 a7.5 7.5 0 1 0 15 0 a7.5 7.5 0 1 0 -15 0zM1134.58 500.25 a7.5 7.5 0 1 0 15 0 a7.5 7.5 0 1 0 -15 0zM1069.63 537.75 a7.5 7.5 0 1 0 15 0 a7.5 7.5 0 1 0 -15 0zM1199.54 537.75 a7.5 7.5 0 1 0 15 0 a7.5 7.5 0 1 0 -15 0zM1199.54 612.75 a7.5 7.5 0 1 0 15 0 a7.5 7.5 0 1 0 -15 0zM1134.58 650.25 a7.5 7.5 0 1 0 15 0 a7.5 7.5 0 1 0 -15 0zM1069.63 612.75 a7.5 7.5 0 1 0 15 0 a7.5 7.5 0 1 0 -15 0zM1199.54 162.75 a7.5 7.5 0 1 0 15 0 a7.5 7.5 0 1 0 -15 0zM1264.49 200.25 a7.5 7.5 0 1 0 15 0 a7.5 7.5 0 1 0 -15 0zM1264.49 275.25 a7.5 7.5 0 1 0 15 0 a7.5 7.5 0 1 0 -15 0zM1199.54 312.75 a7.5 7.5 0 1 0 15 0 a7.5 7.5 0 1 0 -15 0zM1134.58 275.25 a7.5 7.5 0 1 0 15 0 a7.5 7.5 0 1 0 -15 0zM1134.58 200.25 a7.5 7.5 0 1 0 15 0 a7.5 7.5 0 1 0 -15 0zM1264.49 500.25 a7.5 7.5 0 1 0 15 0 a7.5 7.5 0 1 0 -15 0zM1329.44 537.75 a7.5 7.5 0 1 0 15 0 a7.5 7.5 0 1 0 -15 0zM1329.44 612.75 a7.5 7.5 0 1 0 15 0 a7.5 7.5 0 1 0 -15 0zM1264.49 650.25 a7.5 7.5 0 1 0 15 0 a7.5 7.5 0 1 0 -15 0zM1394.4 275.25 a7.5 7.5 0 1 0 15 0 a7.5 7.5 0 1 0 -15 0zM1459.35 312.75 a7.5 7.5 0 1 0 15 0 a7.5 7.5 0 1 0 -15 0zM1459.35 387.75 a7.5 7.5 0 1 0 15 0 a7.5 7.5 0 1 0 -15 0zM1394.4 425.25 a7.5 7.5 0 1 0 15 0 a7.5 7.5 0 1 0 -15 0zM1329.44 387.75 a7.5 7.5 0 1 0 15 0 a7.5 7.5 0 1 0 -15 0zM1329.44 312.75 a7.5 7.5 0 1 0 15 0 a7.5 7.5 0 1 0 -15 0zM1524.31 50.25 a7.5 7.5 0 1 0 15 0 a7.5 7.5 0 1 0 -15 0zM1589.26 87.75 a7.5 7.5 0 1 0 15 0 a7.5 7.5 0 1 0 -15 0zM1589.26 162.75 a7.5 7.5 0 1 0 15 0 a7.5 7.5 0 1 0 -15 0zM1524.31 200.25 a7.5 7.5 0 1 0 15 0 a7.5 7.5 0 1 0 -15 0zM1459.35 162.75 a7.5 7.5 0 1 0 15 0 a7.5 7.5 0 1 0 -15 0zM1459.35 87.75 a7.5 7.5 0 1 0 15 0 a7.5 7.5 0 1 0 -15 0zM1524.31 425.25 a7.5 7.5 0 1 0 15 0 a7.5 7.5 0 1 0 -15 0zM1524.31 500.25 a7.5 7.5 0 1 0 15 0 a7.5 7.5 0 1 0 -15 0zM1459.35 537.75 a7.5 7.5 0 1 0 15 0 a7.5 7.5 0 1 0 -15 0zM1394.4 500.25 a7.5 7.5 0 1 0 15 0 a7.5 7.5 0 1 0 -15 0z" fill="#03305d"></path><path d="M5.05 142.62L48.35 167.62L48.35 217.62L5.05 242.62L-38.25 217.62L-38.25 167.62zM48.35 367.62L91.66 392.62L91.66 442.62L48.35 467.62L5.05 442.62L5.05 392.62zM91.66 -7.38L134.96 17.62L134.96 67.62L91.66 92.62L48.35 67.62L48.35 17.62zM91.66 442.62L134.96 467.62L134.96 517.62L91.66 542.62L48.35 517.62L48.35 467.62zM221.56 67.62L264.87 92.62L264.87 142.62L221.56 167.62L178.26 142.62L178.26 92.62zM264.87 -7.38L308.17 17.62L308.17 67.62L264.87 92.62L221.56 67.62L221.56 17.62zM308.17 367.62L351.47 392.62L351.47 442.62L308.17 467.62L264.87 442.62L264.87 392.62zM264.87 442.62L308.17 467.62L308.17 517.62L264.87 542.62L221.56 517.62L221.56 467.62zM308.17 517.62L351.47 542.62L351.47 592.62L308.17 617.62L264.87 592.62L264.87 542.62zM351.47 142.62L394.77 167.62L394.77 217.62L351.47 242.62L308.17 217.62L308.17 167.62zM351.47 292.62L394.77 317.62L394.77 367.62L351.47 392.62L308.17 367.62L308.17 317.62zM351.47 442.62L394.77 467.62L394.77 517.62L351.47 542.62L308.17 517.62L308.17 467.62zM438.08 -7.38L481.38 17.62L481.38 67.62L438.08 92.62L394.77 67.62L394.77 17.62zM481.38 67.62L524.68 92.62L524.68 142.62L481.38 167.62L438.08 142.62L438.08 92.62zM481.38 517.62L524.68 542.62L524.68 592.62L481.38 617.62L438.08 592.62L438.08 542.62zM524.68 142.62L567.98 167.62L567.98 217.62L524.68 242.62L481.38 217.62L481.38 167.62zM567.98 217.62L611.28 242.62L611.28 292.62L567.98 317.62L524.68 292.62L524.68 242.62zM524.68 292.62L567.98 317.62L567.98 367.62L524.68 392.62L481.38 367.62L481.38 317.62zM654.59 67.62L697.89 92.62L697.89 142.62L654.59 167.62L611.28 142.62L611.28 92.62zM654.59 217.62L697.89 242.62L697.89 292.62L654.59 317.62L611.28 292.62L611.28 242.62zM654.59 367.62L697.89 392.62L697.89 442.62L654.59 467.62L611.28 442.62L611.28 392.62zM654.59 517.62L697.89 542.62L697.89 592.62L654.59 617.62L611.28 592.62L611.28 542.62zM741.19 67.62L784.5 92.62L784.5 142.62L741.19 167.62L697.89 142.62L697.89 92.62zM697.89 142.62L741.19 167.62L741.19 217.62L697.89 242.62L654.59 217.62L654.59 167.62zM741.19 217.62L784.5 242.62L784.5 292.62L741.19 317.62L697.89 292.62L697.89 242.62zM697.89 442.62L741.19 467.62L741.19 517.62L697.89 542.62L654.59 517.62L654.59 467.62zM741.19 517.62L784.5 542.62L784.5 592.62L741.19 617.62L697.89 592.62L697.89 542.62zM827.8 217.62L871.1 242.62L871.1 292.62L827.8 317.62L784.5 292.62L784.5 242.62zM784.5 292.62L827.8 317.62L827.8 367.62L784.5 392.62L741.19 367.62L741.19 317.62zM871.1 -7.38L914.4 17.62L914.4 67.62L871.1 92.62L827.8 67.62L827.8 17.62zM871.1 292.62L914.4 317.62L914.4 367.62L871.1 392.62L827.8 367.62L827.8 317.62zM957.71 442.62L1001.01 467.62L1001.01 517.62L957.71 542.62L914.4 517.62L914.4 467.62zM1001.01 517.62L1044.31 542.62L1044.31 592.62L1001.01 617.62L957.71 592.62L957.71 542.62zM1087.61 67.62L1130.91 92.62L1130.91 142.62L1087.61 167.62L1044.31 142.62L1044.31 92.62zM1044.31 142.62L1087.61 167.62L1087.61 217.62L1044.31 242.62L1001.01 217.62L1001.01 167.62zM1087.61 367.62L1130.91 392.62L1130.91 442.62L1087.61 467.62L1044.31 442.62L1044.31 392.62zM1087.61 517.62L1130.91 542.62L1130.91 592.62L1087.61 617.62L1044.31 592.62L1044.31 542.62zM1130.91 -7.38L1174.22 17.62L1174.22 67.62L1130.91 92.62L1087.61 67.62L1087.61 17.62zM1174.22 67.62L1217.52 92.62L1217.52 142.62L1174.22 167.62L1130.91 142.62L1130.91 92.62zM1130.91 142.62L1174.22 167.62L1174.22 217.62L1130.91 242.62L1087.61 217.62L1087.61 167.62zM1130.91 292.62L1174.22 317.62L1174.22 367.62L1130.91 392.62L1087.61 367.62L1087.61 317.62zM1174.22 367.62L1217.52 392.62L1217.52 442.62L1174.22 467.62L1130.91 442.62L1130.91 392.62zM1130.91 442.62L1174.22 467.62L1174.22 517.62L1130.91 542.62L1087.61 517.62L1087.61 467.62zM1260.82 217.62L1304.13 242.62L1304.13 292.62L1260.82 317.62L1217.52 292.62L1217.52 242.62zM1217.52 292.62L1260.82 317.62L1260.82 367.62L1217.52 392.62L1174.22 367.62L1174.22 317.62zM1304.13 -7.38L1347.43 17.62L1347.43 67.62L1304.13 92.62L1260.82 67.62L1260.82 17.62zM1347.43 517.62L1390.73 542.62L1390.73 592.62L1347.43 617.62L1304.13 592.62L1304.13 542.62zM1390.73 142.62L1434.03 167.62L1434.03 217.62L1390.73 242.62L1347.43 217.62L1347.43 167.62zM1390.73 442.62L1434.03 467.62L1434.03 517.62L1390.73 542.62L1347.43 517.62L1347.43 467.62z" stroke="rgba(6, 80, 156, 0.93)" stroke-width="2"></path></g><defs><mask id="SvgjsMask1000"><rect width="1440" height="560" fill="#ffffff"></rect></mask></defs></svg>