<svg xmlns="http://www.w3.org/2000/svg" version="1.1" xmlns:xlink="http://www.w3.org/1999/xlink" xmlns:svgjs="http://svgjs.com/svgjs" width="1440" height="560" preserveAspectRatio="none" viewBox="0 0 1440 560"><g mask="url(&quot;#SvgjsMask1040&quot;)" fill="none"><rect width="1440" height="560" x="0" y="0" fill="#0e2a47"></rect><path d="M-56.37 400.6L-56.37 400.6" stroke="#132e65" stroke-width="1.5"></path><path d="M-56.37 400.6L-45.39 519.87" stroke="#132e65" stroke-width="1.5"></path><path d="M-56.37 400.6L85.1 367.35" stroke="#132e65" stroke-width="1.5"></path><path d="M-56.37 400.6L48.5 650.8" stroke="#132e65" stroke-width="1.5"></path><path d="M-56.37 400.6L253.36 405.28" stroke="#132e65" stroke-width="1.5"></path><path d="M-56.37 400.6L240.52 523.44" stroke="#132e65" stroke-width="1.5"></path><path d="M-56.37 400.6L246.93 661.63" stroke="#132e65" stroke-width="1.5"></path><path d="M-45.39 519.87L-45.39 519.87" stroke="#132e65" stroke-width="1.5"></path><path d="M-45.39 519.87L48.5 650.8" stroke="#132e65" stroke-width="1.5"></path><path d="M-45.39 519.87L85.1 367.35" stroke="#132e65" stroke-width="1.5"></path><path d="M-45.39 519.87L240.52 523.44" stroke="#132e65" stroke-width="1.5"></path><path d="M85.1 367.35L85.1 367.35" stroke="#132e65" stroke-width="1.5"></path><path d="M85.1 367.35L253.36 405.28" stroke="#132e65" stroke-width="1.5"></path><path d="M48.5 650.8L48.5 650.8" stroke="#132e65" stroke-width="1.5"></path><path d="M253.36 405.28L253.36 405.28" stroke="#132e65" stroke-width="1.5"></path><path d="M253.36 405.28L240.52 523.44" stroke="#132e65" stroke-width="1.5"></path><path d="M253.36 405.28L399.24 511.7" stroke="#132e65" stroke-width="1.5"></path><path d="M253.36 405.28L246.93 661.63" stroke="#132e65" stroke-width="1.5"></path><path d="M240.52 523.44L240.52 523.44" stroke="#132e65" stroke-width="1.5"></path><path d="M240.52 523.44L246.93 661.63" stroke="#132e65" stroke-width="1.5"></path><path d="M240.52 523.44L399.24 511.7" stroke="#132e65" stroke-width="1.5"></path><path d="M240.52 523.44L370.6 652.66" stroke="#132e65" stroke-width="1.5"></path><path d="M246.93 661.63L246.93 661.63" stroke="#132e65" stroke-width="1.5"></path><path d="M246.93 661.63L370.6 652.66" stroke="#132e65" stroke-width="1.5"></path><path d="M246.93 661.63L48.5 650.8" stroke="#132e65" stroke-width="1.5"></path><path d="M246.93 661.63L399.24 511.7" stroke="#132e65" stroke-width="1.5"></path><path d="M399.24 511.7L399.24 511.7" stroke="#132e65" stroke-width="1.5"></path><path d="M399.24 511.7L526.35 516.14" stroke="#132e65" stroke-width="1.5"></path><path d="M399.24 511.7L370.6 652.66" stroke="#132e65" stroke-width="1.5"></path><path d="M399.24 511.7L545.57 395.26" stroke="#132e65" stroke-width="1.5"></path><path d="M370.6 652.66L370.6 652.66" stroke="#132e65" stroke-width="1.5"></path><path d="M370.6 652.66L551.3 688.16" stroke="#132e65" stroke-width="1.5"></path><path d="M370.6 652.66L526.35 516.14" stroke="#132e65" stroke-width="1.5"></path><path d="M545.57 395.26L545.57 395.26" stroke="#132e65" stroke-width="1.5"></path><path d="M545.57 395.26L526.35 516.14" stroke="#132e65" stroke-width="1.5"></path><path d="M545.57 395.26L672.51 368.32" stroke="#132e65" stroke-width="1.5"></path><path d="M545.57 395.26L664.55 513.79" stroke="#132e65" stroke-width="1.5"></path><path d="M545.57 395.26L702.13 243.51" stroke="#132e65" stroke-width="1.5"></path><path d="M545.57 395.26L807.06 357.84" stroke="#132e65" stroke-width="1.5"></path><path d="M526.35 516.14L526.35 516.14" stroke="#132e65" stroke-width="1.5"></path><path d="M551.3 688.16L551.3 688.16" stroke="#132e65" stroke-width="1.5"></path><path d="M551.3 688.16L665.38 664.75" stroke="#132e65" stroke-width="1.5"></path><path d="M551.3 688.16L526.35 516.14" stroke="#132e65" stroke-width="1.5"></path><path d="M551.3 688.16L664.55 513.79" stroke="#132e65" stroke-width="1.5"></path><path d="M702.13 243.51L702.13 243.51" stroke="#132e65" stroke-width="1.5"></path><path d="M702.13 243.51L672.51 368.32" stroke="#132e65" stroke-width="1.5"></path><path d="M702.13 243.51L807.06 357.84" stroke="#132e65" stroke-width="1.5"></path><path d="M702.13 243.51L941.23 251.52" stroke="#132e65" stroke-width="1.5"></path><path d="M702.13 243.51L664.55 513.79" stroke="#132e65" stroke-width="1.5"></path><path d="M702.13 243.51L795.23 520.64" stroke="#132e65" stroke-width="1.5"></path><path d="M672.51 368.32L672.51 368.32" stroke="#132e65" stroke-width="1.5"></path><path d="M672.51 368.32L807.06 357.84" stroke="#132e65" stroke-width="1.5"></path><path d="M672.51 368.32L664.55 513.79" stroke="#132e65" stroke-width="1.5"></path><path d="M672.51 368.32L795.23 520.64" stroke="#132e65" stroke-width="1.5"></path><path d="M672.51 368.32L526.35 516.14" stroke="#132e65" stroke-width="1.5"></path><path d="M664.55 513.79L664.55 513.79" stroke="#132e65" stroke-width="1.5"></path><path d="M664.55 513.79L795.23 520.64" stroke="#132e65" stroke-width="1.5"></path><path d="M664.55 513.79L526.35 516.14" stroke="#132e65" stroke-width="1.5"></path><path d="M665.38 664.75L665.38 664.75" stroke="#132e65" stroke-width="1.5"></path><path d="M665.38 664.75L664.55 513.79" stroke="#132e65" stroke-width="1.5"></path><path d="M807.06 357.84L807.06 357.84" stroke="#132e65" stroke-width="1.5"></path><path d="M807.06 357.84L795.23 520.64" stroke="#132e65" stroke-width="1.5"></path><path d="M795.23 520.64L795.23 520.64" stroke="#132e65" stroke-width="1.5"></path><path d="M795.23 520.64L938.97 547.93" stroke="#132e65" stroke-width="1.5"></path><path d="M818.44 666.7L818.44 666.7" stroke="#132e65" stroke-width="1.5"></path><path d="M818.44 666.7L795.23 520.64" stroke="#132e65" stroke-width="1.5"></path><path d="M818.44 666.7L665.38 664.75" stroke="#132e65" stroke-width="1.5"></path><path d="M818.44 666.7L938.97 547.93" stroke="#132e65" stroke-width="1.5"></path><path d="M818.44 666.7L1000.73 662.81" stroke="#132e65" stroke-width="1.5"></path><path d="M818.44 666.7L664.55 513.79" stroke="#132e65" stroke-width="1.5"></path><path d="M818.44 666.7L551.3 688.16" stroke="#132e65" stroke-width="1.5"></path><path d="M969.22 -44.51L969.22 -44.51" stroke="#132e65" stroke-width="1.5"></path><path d="M969.22 -44.51L1008.93 45.73" stroke="#132e65" stroke-width="1.5"></path><path d="M969.22 -44.51L1131.61 -98.11" stroke="#132e65" stroke-width="1.5"></path><path d="M969.22 -44.51L1127.92 73.1" stroke="#132e65" stroke-width="1.5"></path><path d="M969.22 -44.51L1254.55 -63.19" stroke="#132e65" stroke-width="1.5"></path><path d="M1008.93 45.73L1008.93 45.73" stroke="#132e65" stroke-width="1.5"></path><path d="M1008.93 45.73L1127.92 73.1" stroke="#132e65" stroke-width="1.5"></path><path d="M1008.93 45.73L1131.61 -98.11" stroke="#132e65" stroke-width="1.5"></path><path d="M1008.93 45.73L941.23 251.52" stroke="#132e65" stroke-width="1.5"></path><path d="M1008.93 45.73L1135.94 231.72" stroke="#132e65" stroke-width="1.5"></path><path d="M941.23 251.52L941.23 251.52" stroke="#132e65" stroke-width="1.5"></path><path d="M941.23 251.52L982.46 394.43" stroke="#132e65" stroke-width="1.5"></path><path d="M941.23 251.52L807.06 357.84" stroke="#132e65" stroke-width="1.5"></path><path d="M941.23 251.52L1135.94 231.72" stroke="#132e65" stroke-width="1.5"></path><path d="M941.23 251.52L1098.44 390.03" stroke="#132e65" stroke-width="1.5"></path><path d="M982.46 394.43L982.46 394.43" stroke="#132e65" stroke-width="1.5"></path><path d="M982.46 394.43L1098.44 390.03" stroke="#132e65" stroke-width="1.5"></path><path d="M982.46 394.43L938.97 547.93" stroke="#132e65" stroke-width="1.5"></path><path d="M982.46 394.43L807.06 357.84" stroke="#132e65" stroke-width="1.5"></path><path d="M938.97 547.93L938.97 547.93" stroke="#132e65" stroke-width="1.5"></path><path d="M938.97 547.93L1000.73 662.81" stroke="#132e65" stroke-width="1.5"></path><path d="M1000.73 662.81L1000.73 662.81" stroke="#132e65" stroke-width="1.5"></path><path d="M1000.73 662.81L1139.82 668.9" stroke="#132e65" stroke-width="1.5"></path><path d="M1000.73 662.81L1123.03 537.06" stroke="#132e65" stroke-width="1.5"></path><path d="M1000.73 662.81L795.23 520.64" stroke="#132e65" stroke-width="1.5"></path><path d="M1131.61 -98.11L1131.61 -98.11" stroke="#132e65" stroke-width="1.5"></path><path d="M1131.61 -98.11L1254.55 -63.19" stroke="#132e65" stroke-width="1.5"></path><path d="M1131.61 -98.11L1127.92 73.1" stroke="#132e65" stroke-width="1.5"></path><path d="M1127.92 73.1L1127.92 73.1" stroke="#132e65" stroke-width="1.5"></path><path d="M1127.92 73.1L1266.48 59.29" stroke="#132e65" stroke-width="1.5"></path><path d="M1135.94 231.72L1135.94 231.72" stroke="#132e65" stroke-width="1.5"></path><path d="M1135.94 231.72L1253.2 203.98" stroke="#132e65" stroke-width="1.5"></path><path d="M1135.94 231.72L1127.92 73.1" stroke="#132e65" stroke-width="1.5"></path><path d="M1135.94 231.72L1098.44 390.03" stroke="#132e65" stroke-width="1.5"></path><path d="M1098.44 390.03L1098.44 390.03" stroke="#132e65" stroke-width="1.5"></path><path d="M1098.44 390.03L1123.03 537.06" stroke="#132e65" stroke-width="1.5"></path><path d="M1098.44 390.03L1267.55 347.3" stroke="#132e65" stroke-width="1.5"></path><path d="M1098.44 390.03L1248.15 533.92" stroke="#132e65" stroke-width="1.5"></path><path d="M1123.03 537.06L1123.03 537.06" stroke="#132e65" stroke-width="1.5"></path><path d="M1123.03 537.06L1248.15 533.92" stroke="#132e65" stroke-width="1.5"></path><path d="M1123.03 537.06L1139.82 668.9" stroke="#132e65" stroke-width="1.5"></path><path d="M1139.82 668.9L1139.82 668.9" stroke="#132e65" stroke-width="1.5"></path><path d="M1139.82 668.9L1272.5 652.16" stroke="#132e65" stroke-width="1.5"></path><path d="M1254.55 -63.19L1254.55 -63.19" stroke="#132e65" stroke-width="1.5"></path><path d="M1254.55 -63.19L1266.48 59.29" stroke="#132e65" stroke-width="1.5"></path><path d="M1266.48 59.29L1266.48 59.29" stroke="#132e65" stroke-width="1.5"></path><path d="M1266.48 59.29L1253.2 203.98" stroke="#132e65" stroke-width="1.5"></path><path d="M1266.48 59.29L1446.59 70.15" stroke="#132e65" stroke-width="1.5"></path><path d="M1266.48 59.29L1131.61 -98.11" stroke="#132e65" stroke-width="1.5"></path><path d="M1253.2 203.98L1253.2 203.98" stroke="#132e65" stroke-width="1.5"></path><path d="M1253.2 203.98L1267.55 347.3" stroke="#132e65" stroke-width="1.5"></path><path d="M1267.55 347.3L1267.55 347.3" stroke="#132e65" stroke-width="1.5"></path><path d="M1267.55 347.3L1135.94 231.72" stroke="#132e65" stroke-width="1.5"></path><path d="M1267.55 347.3L1248.15 533.92" stroke="#132e65" stroke-width="1.5"></path><path d="M1267.55 347.3L1458.81 399.98" stroke="#132e65" stroke-width="1.5"></path><path d="M1248.15 533.92L1248.15 533.92" stroke="#132e65" stroke-width="1.5"></path><path d="M1248.15 533.92L1272.5 652.16" stroke="#132e65" stroke-width="1.5"></path><path d="M1272.5 652.16L1272.5 652.16" stroke="#132e65" stroke-width="1.5"></path><path d="M1272.5 652.16L1419.29 690.03" stroke="#132e65" stroke-width="1.5"></path><path d="M1426.33 -96.28L1426.33 -96.28" stroke="#132e65" stroke-width="1.5"></path><path d="M1426.33 -96.28L1553.28 -41.33" stroke="#132e65" stroke-width="1.5"></path><path d="M1426.33 -96.28L1446.59 70.15" stroke="#132e65" stroke-width="1.5"></path><path d="M1426.33 -96.28L1254.55 -63.19" stroke="#132e65" stroke-width="1.5"></path><path d="M1426.33 -96.28L1266.48 59.29" stroke="#132e65" stroke-width="1.5"></path><path d="M1446.59 70.15L1446.59 70.15" stroke="#132e65" stroke-width="1.5"></path><path d="M1446.59 70.15L1432.15 200" stroke="#132e65" stroke-width="1.5"></path><path d="M1446.59 70.15L1553.28 -41.33" stroke="#132e65" stroke-width="1.5"></path><path d="M1432.15 200L1432.15 200" stroke="#132e65" stroke-width="1.5"></path><path d="M1432.15 200L1570.44 255.61" stroke="#132e65" stroke-width="1.5"></path><path d="M1458.81 399.98L1458.81 399.98" stroke="#132e65" stroke-width="1.5"></path><path d="M1458.81 399.98L1572.82 368.65" stroke="#132e65" stroke-width="1.5"></path><path d="M1458.81 399.98L1399.79 518.47" stroke="#132e65" stroke-width="1.5"></path><path d="M1458.81 399.98L1570.44 255.61" stroke="#132e65" stroke-width="1.5"></path><path d="M1399.79 518.47L1399.79 518.47" stroke="#132e65" stroke-width="1.5"></path><path d="M1399.79 518.47L1248.15 533.92" stroke="#132e65" stroke-width="1.5"></path><path d="M1399.79 518.47L1419.29 690.03" stroke="#132e65" stroke-width="1.5"></path><path d="M1399.79 518.47L1272.5 652.16" stroke="#132e65" stroke-width="1.5"></path><path d="M1419.29 690.03L1419.29 690.03" stroke="#132e65" stroke-width="1.5"></path><path d="M1419.29 690.03L1544.12 662.55" stroke="#132e65" stroke-width="1.5"></path><path d="M1553.28 -41.33L1553.28 -41.33" stroke="#132e65" stroke-width="1.5"></path><path d="M1553.28 -41.33L1606.03 43.84" stroke="#132e65" stroke-width="1.5"></path><path d="M1606.03 43.84L1606.03 43.84" stroke="#132e65" stroke-width="1.5"></path><path d="M1606.03 43.84L1446.59 70.15" stroke="#132e65" stroke-width="1.5"></path><path d="M1606.03 43.84L1570.44 255.61" stroke="#132e65" stroke-width="1.5"></path><path d="M1570.44 255.61L1570.44 255.61" stroke="#132e65" stroke-width="1.5"></path><path d="M1570.44 255.61L1572.82 368.65" stroke="#132e65" stroke-width="1.5"></path><path d="M1572.82 368.65L1572.82 368.65" stroke="#132e65" stroke-width="1.5"></path><path d="M1572.82 368.65L1590.61 551.32" stroke="#132e65" stroke-width="1.5"></path><path d="M1572.82 368.65L1432.15 200" stroke="#132e65" stroke-width="1.5"></path><path d="M1590.61 551.32L1590.61 551.32" stroke="#132e65" stroke-width="1.5"></path><path d="M1590.61 551.32L1544.12 662.55" stroke="#132e65" stroke-width="1.5"></path><path d="M1590.61 551.32L1399.79 518.47" stroke="#132e65" stroke-width="1.5"></path><path d="M1590.61 551.32L1458.81 399.98" stroke="#132e65" stroke-width="1.5"></path><path d="M1590.61 551.32L1419.29 690.03" stroke="#132e65" stroke-width="1.5"></path><path d="M1544.12 662.55L1544.12 662.55" stroke="#132e65" stroke-width="1.5"></path><circle r="5" cx="-56.37" cy="400.6" fill="#132e65"></circle><circle r="5" cx="-45.39" cy="519.87" fill="#132e65"></circle><circle r="5" cx="85.1" cy="367.35" fill="#132e65"></circle><circle r="5" cx="48.5" cy="650.8" fill="#132e65"></circle><circle r="5" cx="253.36" cy="405.28" fill="#132e65"></circle><circle r="5" cx="240.52" cy="523.44" fill="#132e65"></circle><circle r="5" cx="246.93" cy="661.63" fill="#132e65"></circle><circle r="5" cx="399.24" cy="511.7" fill="#132e65"></circle><circle r="5" cx="370.6" cy="652.66" fill="#132e65"></circle><circle r="5" cx="545.57" cy="395.26" fill="#132e65"></circle><circle r="5" cx="526.35" cy="516.14" fill="#132e65"></circle><circle r="5" cx="551.3" cy="688.16" fill="#132e65"></circle><circle r="5" cx="702.13" cy="243.51" fill="#132e65"></circle><circle r="5" cx="672.51" cy="368.32" fill="#132e65"></circle><circle r="5" cx="664.55" cy="513.79" fill="#132e65"></circle><circle r="5" cx="665.38" cy="664.75" fill="#132e65"></circle><circle r="5" cx="807.06" cy="357.84" fill="#132e65"></circle><circle r="5" cx="795.23" cy="520.64" fill="#132e65"></circle><circle r="5" cx="818.44" cy="666.7" fill="#132e65"></circle><circle r="5" cx="969.22" cy="-44.51" fill="#132e65"></circle><circle r="5" cx="1008.93" cy="45.73" fill="#132e65"></circle><circle r="5" cx="941.23" cy="251.52" fill="#132e65"></circle><circle r="5" cx="982.46" cy="394.43" fill="#132e65"></circle><circle r="5" cx="938.97" cy="547.93" fill="#132e65"></circle><circle r="5" cx="1000.73" cy="662.81" fill="#132e65"></circle><circle r="5" cx="1131.61" cy="-98.11" fill="#132e65"></circle><circle r="5" cx="1127.92" cy="73.1" fill="#132e65"></circle><circle r="5" cx="1135.94" cy="231.72" fill="#132e65"></circle><circle r="5" cx="1098.44" cy="390.03" fill="#132e65"></circle><circle r="5" cx="1123.03" cy="537.06" fill="#132e65"></circle><circle r="5" cx="1139.82" cy="668.9" fill="#132e65"></circle><circle r="5" cx="1254.55" cy="-63.19" fill="#132e65"></circle><circle r="5" cx="1266.48" cy="59.29" fill="#132e65"></circle><circle r="5" cx="1253.2" cy="203.98" fill="#132e65"></circle><circle r="5" cx="1267.55" cy="347.3" fill="#132e65"></circle><circle r="5" cx="1248.15" cy="533.92" fill="#132e65"></circle><circle r="5" cx="1272.5" cy="652.16" fill="#132e65"></circle><circle r="5" cx="1426.33" cy="-96.28" fill="#132e65"></circle><circle r="5" cx="1446.59" cy="70.15" fill="#132e65"></circle><circle r="5" cx="1432.15" cy="200" fill="#132e65"></circle><circle r="5" cx="1458.81" cy="399.98" fill="#132e65"></circle><circle r="5" cx="1399.79" cy="518.47" fill="#132e65"></circle><circle r="5" cx="1419.29" cy="690.03" fill="#132e65"></circle><circle r="5" cx="1553.28" cy="-41.33" fill="#132e65"></circle><circle r="5" cx="1606.03" cy="43.84" fill="#132e65"></circle><circle r="5" cx="1570.44" cy="255.61" fill="#132e65"></circle><circle r="5" cx="1572.82" cy="368.65" fill="#132e65"></circle><circle r="5" cx="1590.61" cy="551.32" fill="#132e65"></circle><circle r="5" cx="1544.12" cy="662.55" fill="#132e65"></circle><path d="M227.34 677.68L227.34 677.68" stroke="hsl(228.5, 77.2%, 51.5%)" stroke-width="1.5"></path><path d="M227.34 677.68L349.4 688.08" stroke="hsl(228.5, 77.2%, 51.5%)" stroke-width="1.5"></path><path d="M227.34 677.68L93.71 659.91" stroke="hsl(228.5, 77.2%, 51.5%)" stroke-width="1.5"></path><path d="M227.34 677.68L251.41 494.24" stroke="hsl(228.5, 77.2%, 51.5%)" stroke-width="1.5"></path><path d="M349.4 688.08L349.4 688.08" stroke="hsl(228.5, 77.2%, 51.5%)" stroke-width="1.5"></path><path d="M349.4 688.08L391.82 549.98" stroke="hsl(228.5, 77.2%, 51.5%)" stroke-width="1.5"></path><path d="M349.4 688.08L524.76 666.36" stroke="hsl(228.5, 77.2%, 51.5%)" stroke-width="1.5"></path><path d="M349.4 688.08L251.41 494.24" stroke="hsl(228.5, 77.2%, 51.5%)" stroke-width="1.5"></path><path d="M998.34 516.77L998.34 516.77" stroke="hsl(228.5, 77.2%, 51.5%)" stroke-width="1.5"></path><path d="M998.34 516.77L1120.55 531.41" stroke="hsl(228.5, 77.2%, 51.5%)" stroke-width="1.5"></path><path d="M998.34 516.77L952.21 662.94" stroke="hsl(228.5, 77.2%, 51.5%)" stroke-width="1.5"></path><path d="M998.34 516.77L958.34 357.44" stroke="hsl(228.5, 77.2%, 51.5%)" stroke-width="1.5"></path><path d="M998.34 516.77L1120.36 396.49" stroke="hsl(228.5, 77.2%, 51.5%)" stroke-width="1.5"></path><path d="M1135.72 92.39L1135.72 92.39" stroke="hsl(228.5, 77.2%, 51.5%)" stroke-width="1.5"></path><path d="M1135.72 92.39L1158.96 189.63" stroke="hsl(228.5, 77.2%, 51.5%)" stroke-width="1.5"></path><path d="M1135.72 92.39L1295.56 101.86" stroke="hsl(228.5, 77.2%, 51.5%)" stroke-width="1.5"></path><path d="M1135.72 92.39L1246.01 261.45" stroke="hsl(228.5, 77.2%, 51.5%)" stroke-width="1.5"></path><path d="M1158.96 189.63L1158.96 189.63" stroke="hsl(228.5, 77.2%, 51.5%)" stroke-width="1.5"></path><path d="M1158.96 189.63L1246.01 261.45" stroke="hsl(228.5, 77.2%, 51.5%)" stroke-width="1.5"></path><path d="M1158.96 189.63L1295.56 101.86" stroke="hsl(228.5, 77.2%, 51.5%)" stroke-width="1.5"></path><path d="M1128.66 648.03L1128.66 648.03" stroke="hsl(228.5, 77.2%, 51.5%)" stroke-width="1.5"></path><path d="M1128.66 648.03L1120.55 531.41" stroke="hsl(228.5, 77.2%, 51.5%)" stroke-width="1.5"></path><path d="M1128.66 648.03L1248.58 709.3" stroke="hsl(228.5, 77.2%, 51.5%)" stroke-width="1.5"></path><path d="M1128.66 648.03L952.21 662.94" stroke="hsl(228.5, 77.2%, 51.5%)" stroke-width="1.5"></path><path d="M1128.66 648.03L998.34 516.77" stroke="hsl(228.5, 77.2%, 51.5%)" stroke-width="1.5"></path><path d="M1128.66 648.03L1284.81 521.62" stroke="hsl(228.5, 77.2%, 51.5%)" stroke-width="1.5"></path><path d="M1128.66 648.03L1120.36 396.49" stroke="hsl(228.5, 77.2%, 51.5%)" stroke-width="1.5"></path><path d="M1284.81 521.62L1284.81 521.62" stroke="hsl(228.5, 77.2%, 51.5%)" stroke-width="1.5"></path><path d="M1284.81 521.62L1442.86 489.51" stroke="hsl(228.5, 77.2%, 51.5%)" stroke-width="1.5"></path><path d="M1284.81 521.62L1120.55 531.41" stroke="hsl(228.5, 77.2%, 51.5%)" stroke-width="1.5"></path><path d="M1284.81 521.62L1248.58 709.3" stroke="hsl(228.5, 77.2%, 51.5%)" stroke-width="1.5"></path><path d="M1284.81 521.62L1389.68 687.45" stroke="hsl(228.5, 77.2%, 51.5%)" stroke-width="1.5"></path><path d="M1284.81 521.62L1446.79 395.28" stroke="hsl(228.5, 77.2%, 51.5%)" stroke-width="1.5"></path><path d="M1446.79 395.28L1446.79 395.28" stroke="hsl(228.5, 77.2%, 51.5%)" stroke-width="1.5"></path><path d="M1446.79 395.28L1442.86 489.51" stroke="hsl(228.5, 77.2%, 51.5%)" stroke-width="1.5"></path><path d="M1446.79 395.28L1546 488.24" stroke="hsl(228.5, 77.2%, 51.5%)" stroke-width="1.5"></path><path d="M1446.79 395.28L1597.68 350.77" stroke="hsl(228.5, 77.2%, 51.5%)" stroke-width="1.5"></path><path d="M1389.68 687.45L1389.68 687.45" stroke="hsl(228.5, 77.2%, 51.5%)" stroke-width="1.5"></path><path d="M1389.68 687.45L1248.58 709.3" stroke="hsl(228.5, 77.2%, 51.5%)" stroke-width="1.5"></path><path d="M1389.68 687.45L1542.83 640.45" stroke="hsl(228.5, 77.2%, 51.5%)" stroke-width="1.5"></path><path d="M1565.82 -53.62L1565.82 -53.62" stroke="hsl(228.5, 77.2%, 51.5%)" stroke-width="1.5"></path><path d="M1565.82 -53.62L1436.03 -95.42" stroke="hsl(228.5, 77.2%, 51.5%)" stroke-width="1.5"></path><path d="M1565.82 -53.62L1443.85 43.55" stroke="hsl(228.5, 77.2%, 51.5%)" stroke-width="1.5"></path><path d="M1565.82 -53.62L1541.9 102.96" stroke="hsl(228.5, 77.2%, 51.5%)" stroke-width="1.5"></path><path d="M1565.82 -53.62L1611.77 206.32" stroke="hsl(228.5, 77.2%, 51.5%)" stroke-width="1.5"></path><path d="M1611.77 206.32L1611.77 206.32" stroke="hsl(228.5, 77.2%, 51.5%)" stroke-width="1.5"></path><path d="M1611.77 206.32L1541.9 102.96" stroke="hsl(228.5, 77.2%, 51.5%)" stroke-width="1.5"></path><path d="M1611.77 206.32L1597.68 350.77" stroke="hsl(228.5, 77.2%, 51.5%)" stroke-width="1.5"></path><path d="M1611.77 206.32L1430.22 231.13" stroke="hsl(228.5, 77.2%, 51.5%)" stroke-width="1.5"></path><path d="M1611.77 206.32L1443.85 43.55" stroke="hsl(228.5, 77.2%, 51.5%)" stroke-width="1.5"></path><path d="M1611.77 206.32L1446.79 395.28" stroke="hsl(228.5, 77.2%, 51.5%)" stroke-width="1.5"></path><path d="M1542.83 640.45L1542.83 640.45" stroke="hsl(228.5, 77.2%, 51.5%)" stroke-width="1.5"></path><path d="M1542.83 640.45L1546 488.24" stroke="hsl(228.5, 77.2%, 51.5%)" stroke-width="1.5"></path><path d="M1542.83 640.45L1442.86 489.51" stroke="hsl(228.5, 77.2%, 51.5%)" stroke-width="1.5"></path><path d="M1542.83 640.45L1446.79 395.28" stroke="hsl(228.5, 77.2%, 51.5%)" stroke-width="1.5"></path><path d="M1542.83 640.45L1284.81 521.62" stroke="hsl(228.5, 77.2%, 51.5%)" stroke-width="1.5"></path><path d="M1542.83 640.45L1597.68 350.77" stroke="hsl(228.5, 77.2%, 51.5%)" stroke-width="1.5"></path><path d="M-100.12 544.88L-100.12 544.88" stroke="hsl(228.5, 77.2%, 51.5%)" stroke-width="1.5"></path><path d="M-100.12 544.88L-68.52 639.78" stroke="hsl(228.5, 77.2%, 51.5%)" stroke-width="1.5"></path><path d="M-100.12 544.88L45.15 555.89" stroke="hsl(228.5, 77.2%, 51.5%)" stroke-width="1.5"></path><path d="M-100.12 544.88L93.71 659.91" stroke="hsl(228.5, 77.2%, 51.5%)" stroke-width="1.5"></path><path d="M-100.12 544.88L227.34 677.68" stroke="hsl(228.5, 77.2%, 51.5%)" stroke-width="1.5"></path><path d="M-100.12 544.88L251.41 494.24" stroke="hsl(228.5, 77.2%, 51.5%)" stroke-width="1.5"></path><path d="M-100.12 544.88L349.4 688.08" stroke="hsl(228.5, 77.2%, 51.5%)" stroke-width="1.5"></path><path d="M-68.52 639.78L-68.52 639.78" stroke="hsl(228.5, 77.2%, 51.5%)" stroke-width="1.5"></path><path d="M-68.52 639.78L45.15 555.89" stroke="hsl(228.5, 77.2%, 51.5%)" stroke-width="1.5"></path><path d="M-68.52 639.78L93.71 659.91" stroke="hsl(228.5, 77.2%, 51.5%)" stroke-width="1.5"></path><path d="M-68.52 639.78L227.34 677.68" stroke="hsl(228.5, 77.2%, 51.5%)" stroke-width="1.5"></path><path d="M45.15 555.89L45.15 555.89" stroke="hsl(228.5, 77.2%, 51.5%)" stroke-width="1.5"></path><path d="M45.15 555.89L93.71 659.91" stroke="hsl(228.5, 77.2%, 51.5%)" stroke-width="1.5"></path><path d="M93.71 659.91L93.71 659.91" stroke="hsl(228.5, 77.2%, 51.5%)" stroke-width="1.5"></path><path d="M251.41 494.24L251.41 494.24" stroke="hsl(228.5, 77.2%, 51.5%)" stroke-width="1.5"></path><path d="M251.41 494.24L391.82 549.98" stroke="hsl(228.5, 77.2%, 51.5%)" stroke-width="1.5"></path><path d="M251.41 494.24L45.15 555.89" stroke="hsl(228.5, 77.2%, 51.5%)" stroke-width="1.5"></path><path d="M391.82 549.98L391.82 549.98" stroke="hsl(228.5, 77.2%, 51.5%)" stroke-width="1.5"></path><path d="M391.82 549.98L512.87 540.71" stroke="hsl(228.5, 77.2%, 51.5%)" stroke-width="1.5"></path><path d="M512.87 540.71L512.87 540.71" stroke="hsl(228.5, 77.2%, 51.5%)" stroke-width="1.5"></path><path d="M512.87 540.71L524.76 666.36" stroke="hsl(228.5, 77.2%, 51.5%)" stroke-width="1.5"></path><path d="M512.87 540.71L653.9 537.73" stroke="hsl(228.5, 77.2%, 51.5%)" stroke-width="1.5"></path><path d="M512.87 540.71L349.4 688.08" stroke="hsl(228.5, 77.2%, 51.5%)" stroke-width="1.5"></path><path d="M512.87 540.71L711.36 678.17" stroke="hsl(228.5, 77.2%, 51.5%)" stroke-width="1.5"></path><path d="M512.87 540.71L251.41 494.24" stroke="hsl(228.5, 77.2%, 51.5%)" stroke-width="1.5"></path><path d="M524.76 666.36L524.76 666.36" stroke="hsl(228.5, 77.2%, 51.5%)" stroke-width="1.5"></path><path d="M524.76 666.36L391.82 549.98" stroke="hsl(228.5, 77.2%, 51.5%)" stroke-width="1.5"></path><path d="M524.76 666.36L653.9 537.73" stroke="hsl(228.5, 77.2%, 51.5%)" stroke-width="1.5"></path><path d="M524.76 666.36L711.36 678.17" stroke="hsl(228.5, 77.2%, 51.5%)" stroke-width="1.5"></path><path d="M524.76 666.36L227.34 677.68" stroke="hsl(228.5, 77.2%, 51.5%)" stroke-width="1.5"></path><path d="M653.9 537.73L653.9 537.73" stroke="hsl(228.5, 77.2%, 51.5%)" stroke-width="1.5"></path><path d="M653.9 537.73L711.36 678.17" stroke="hsl(228.5, 77.2%, 51.5%)" stroke-width="1.5"></path><path d="M711.36 678.17L711.36 678.17" stroke="hsl(228.5, 77.2%, 51.5%)" stroke-width="1.5"></path><path d="M711.36 678.17L839.33 674.5" stroke="hsl(228.5, 77.2%, 51.5%)" stroke-width="1.5"></path><path d="M815.59 373.37L815.59 373.37" stroke="hsl(228.5, 77.2%, 51.5%)" stroke-width="1.5"></path><path d="M815.59 373.37L958.34 357.44" stroke="hsl(228.5, 77.2%, 51.5%)" stroke-width="1.5"></path><path d="M815.59 373.37L653.9 537.73" stroke="hsl(228.5, 77.2%, 51.5%)" stroke-width="1.5"></path><path d="M839.33 674.5L839.33 674.5" stroke="hsl(228.5, 77.2%, 51.5%)" stroke-width="1.5"></path><path d="M839.33 674.5L952.21 662.94" stroke="hsl(228.5, 77.2%, 51.5%)" stroke-width="1.5"></path><path d="M958.34 357.44L958.34 357.44" stroke="hsl(228.5, 77.2%, 51.5%)" stroke-width="1.5"></path><path d="M958.34 357.44L1120.36 396.49" stroke="hsl(228.5, 77.2%, 51.5%)" stroke-width="1.5"></path><path d="M958.34 357.44L1120.55 531.41" stroke="hsl(228.5, 77.2%, 51.5%)" stroke-width="1.5"></path><path d="M958.34 357.44L1158.96 189.63" stroke="hsl(228.5, 77.2%, 51.5%)" stroke-width="1.5"></path><path d="M952.21 662.94L952.21 662.94" stroke="hsl(228.5, 77.2%, 51.5%)" stroke-width="1.5"></path><path d="M1120.36 396.49L1120.36 396.49" stroke="hsl(228.5, 77.2%, 51.5%)" stroke-width="1.5"></path><path d="M1120.36 396.49L1120.55 531.41" stroke="hsl(228.5, 77.2%, 51.5%)" stroke-width="1.5"></path><path d="M1120.36 396.49L1246.01 261.45" stroke="hsl(228.5, 77.2%, 51.5%)" stroke-width="1.5"></path><path d="M1120.36 396.49L1284.81 521.62" stroke="hsl(228.5, 77.2%, 51.5%)" stroke-width="1.5"></path><path d="M1120.55 531.41L1120.55 531.41" stroke="hsl(228.5, 77.2%, 51.5%)" stroke-width="1.5"></path><path d="M1271.29 -78.27L1271.29 -78.27" stroke="hsl(228.5, 77.2%, 51.5%)" stroke-width="1.5"></path><path d="M1271.29 -78.27L1436.03 -95.42" stroke="hsl(228.5, 77.2%, 51.5%)" stroke-width="1.5"></path><path d="M1271.29 -78.27L1295.56 101.86" stroke="hsl(228.5, 77.2%, 51.5%)" stroke-width="1.5"></path><path d="M1295.56 101.86L1295.56 101.86" stroke="hsl(228.5, 77.2%, 51.5%)" stroke-width="1.5"></path><path d="M1295.56 101.86L1443.85 43.55" stroke="hsl(228.5, 77.2%, 51.5%)" stroke-width="1.5"></path><path d="M1246.01 261.45L1246.01 261.45" stroke="hsl(228.5, 77.2%, 51.5%)" stroke-width="1.5"></path><path d="M1246.01 261.45L1295.56 101.86" stroke="hsl(228.5, 77.2%, 51.5%)" stroke-width="1.5"></path><path d="M1246.01 261.45L1430.22 231.13" stroke="hsl(228.5, 77.2%, 51.5%)" stroke-width="1.5"></path><path d="M1248.58 709.3L1248.58 709.3" stroke="hsl(228.5, 77.2%, 51.5%)" stroke-width="1.5"></path><path d="M1248.58 709.3L1120.55 531.41" stroke="hsl(228.5, 77.2%, 51.5%)" stroke-width="1.5"></path><path d="M1436.03 -95.42L1436.03 -95.42" stroke="hsl(228.5, 77.2%, 51.5%)" stroke-width="1.5"></path><path d="M1436.03 -95.42L1443.85 43.55" stroke="hsl(228.5, 77.2%, 51.5%)" stroke-width="1.5"></path><path d="M1443.85 43.55L1443.85 43.55" stroke="hsl(228.5, 77.2%, 51.5%)" stroke-width="1.5"></path><path d="M1443.85 43.55L1541.9 102.96" stroke="hsl(228.5, 77.2%, 51.5%)" stroke-width="1.5"></path><path d="M1430.22 231.13L1430.22 231.13" stroke="hsl(228.5, 77.2%, 51.5%)" stroke-width="1.5"></path><path d="M1430.22 231.13L1446.79 395.28" stroke="hsl(228.5, 77.2%, 51.5%)" stroke-width="1.5"></path><path d="M1430.22 231.13L1541.9 102.96" stroke="hsl(228.5, 77.2%, 51.5%)" stroke-width="1.5"></path><path d="M1430.22 231.13L1295.56 101.86" stroke="hsl(228.5, 77.2%, 51.5%)" stroke-width="1.5"></path><path d="M1430.22 231.13L1443.85 43.55" stroke="hsl(228.5, 77.2%, 51.5%)" stroke-width="1.5"></path><path d="M1442.86 489.51L1442.86 489.51" stroke="hsl(228.5, 77.2%, 51.5%)" stroke-width="1.5"></path><path d="M1442.86 489.51L1546 488.24" stroke="hsl(228.5, 77.2%, 51.5%)" stroke-width="1.5"></path><path d="M1442.86 489.51L1389.68 687.45" stroke="hsl(228.5, 77.2%, 51.5%)" stroke-width="1.5"></path><path d="M1541.9 102.96L1541.9 102.96" stroke="hsl(228.5, 77.2%, 51.5%)" stroke-width="1.5"></path><path d="M1597.68 350.77L1597.68 350.77" stroke="hsl(228.5, 77.2%, 51.5%)" stroke-width="1.5"></path><path d="M1597.68 350.77L1546 488.24" stroke="hsl(228.5, 77.2%, 51.5%)" stroke-width="1.5"></path><path d="M1597.68 350.77L1430.22 231.13" stroke="hsl(228.5, 77.2%, 51.5%)" stroke-width="1.5"></path><path d="M1597.68 350.77L1442.86 489.51" stroke="hsl(228.5, 77.2%, 51.5%)" stroke-width="1.5"></path><path d="M1546 488.24L1546 488.24" stroke="hsl(228.5, 77.2%, 51.5%)" stroke-width="1.5"></path><circle r="25" cx="227.34" cy="677.68" fill="url(#SvgjsRadialGradient1041)"></circle><circle r="25" cx="349.4" cy="688.08" fill="url(#SvgjsRadialGradient1041)"></circle><circle r="25" cx="998.34" cy="516.77" fill="url(#SvgjsRadialGradient1041)"></circle><circle r="25" cx="1135.72" cy="92.39" fill="url(#SvgjsRadialGradient1041)"></circle><circle r="25" cx="1158.96" cy="189.63" fill="url(#SvgjsRadialGradient1041)"></circle><circle r="25" cx="1128.66" cy="648.03" fill="url(#SvgjsRadialGradient1041)"></circle><circle r="25" cx="1284.81" cy="521.62" fill="url(#SvgjsRadialGradient1041)"></circle><circle r="25" cx="1446.79" cy="395.28" fill="url(#SvgjsRadialGradient1041)"></circle><circle r="25" cx="1389.68" cy="687.45" fill="url(#SvgjsRadialGradient1041)"></circle><circle r="25" cx="1565.82" cy="-53.62" fill="url(#SvgjsRadialGradient1041)"></circle><circle r="25" cx="1611.77" cy="206.32" fill="url(#SvgjsRadialGradient1041)"></circle><circle r="25" cx="1542.83" cy="640.45" fill="url(#SvgjsRadialGradient1041)"></circle><circle r="5" cx="-100.12" cy="544.88" fill="#8b9ad9"></circle><circle r="5" cx="-68.52" cy="639.78" fill="#8b9ad9"></circle><circle r="5" cx="45.15" cy="555.89" fill="#8b9ad9"></circle><circle r="5" cx="93.71" cy="659.91" fill="#8b9ad9"></circle><circle r="5" cx="251.41" cy="494.24" fill="#8b9ad9"></circle><circle r="5" cx="391.82" cy="549.98" fill="#8b9ad9"></circle><circle r="5" cx="512.87" cy="540.71" fill="#8b9ad9"></circle><circle r="5" cx="524.76" cy="666.36" fill="#8b9ad9"></circle><circle r="5" cx="653.9" cy="537.73" fill="#8b9ad9"></circle><circle r="5" cx="711.36" cy="678.17" fill="#8b9ad9"></circle><circle r="5" cx="815.59" cy="373.37" fill="#8b9ad9"></circle><circle r="5" cx="839.33" cy="674.5" fill="#8b9ad9"></circle><circle r="5" cx="958.34" cy="357.44" fill="#8b9ad9"></circle><circle r="5" cx="952.21" cy="662.94" fill="#8b9ad9"></circle><circle r="5" cx="1120.36" cy="396.49" fill="#8b9ad9"></circle><circle r="5" cx="1120.55" cy="531.41" fill="#8b9ad9"></circle><circle r="5" cx="1271.29" cy="-78.27" fill="#8b9ad9"></circle><circle r="5" cx="1295.56" cy="101.86" fill="#8b9ad9"></circle><circle r="5" cx="1246.01" cy="261.45" fill="#8b9ad9"></circle><circle r="5" cx="1248.58" cy="709.3" fill="#8b9ad9"></circle><circle r="5" cx="1436.03" cy="-95.42" fill="#8b9ad9"></circle><circle r="5" cx="1443.85" cy="43.55" fill="#8b9ad9"></circle><circle r="5" cx="1430.22" cy="231.13" fill="#8b9ad9"></circle><circle r="5" cx="1442.86" cy="489.51" fill="#8b9ad9"></circle><circle r="5" cx="1541.9" cy="102.96" fill="#8b9ad9"></circle><circle r="5" cx="1597.68" cy="350.77" fill="#8b9ad9"></circle><circle r="5" cx="1546" cy="488.24" fill="#8b9ad9"></circle></g><defs><mask id="SvgjsMask1040"><rect width="1440" height="560" fill="#ffffff"></rect></mask><radialGradient id="SvgjsRadialGradient1041"><stop stop-color="#ffffff" offset="0.1"></stop><stop stop-color="#1735b3" offset="0.2"></stop><stop stop-color="rgba(23, 53, 179, 0)" offset="1"></stop></radialGradient></defs></svg>