<svg xmlns="http://www.w3.org/2000/svg" version="1.1" xmlns:xlink="http://www.w3.org/1999/xlink" xmlns:svgjs="http://svgjs.com/svgjs" width="1440" height="560" preserveAspectRatio="none" viewBox="0 0 1440 560"><g mask="url(&quot;#SvgjsMask1850&quot;)" fill="none"><rect width="1440" height="560" x="0" y="0" fill="#0e2a47"></rect><g mask="url(&quot;#SvgjsMask1851&quot;)"><path d="M1295 285L1285 275L1275 275L1265 275L1255 275L1245 275L1235 275M1455 285L1445 285L1435 285L1425 285L1415 285L1405 285L1395 285L1385 285L1375 285L1365 285L1355 285L1345 285L1335 285L1325 285L1315 285L1305 285L1295 285L1285 285" stroke="#3a7cc3" stroke-width="1.67"></path><path d="M1282.5 285 a2.5 2.5 0 1 0 5 0 a2.5 2.5 0 1 0 -5 0zM1232.5 275 a2.5 2.5 0 1 0 5 0 a2.5 2.5 0 1 0 -5 0z" fill="#3a7cc3"></path><path d="M1095 275L1085 285L1075 285L1065 285M1335 275L1325 265L1315 265M1185 255L1175 245L1165 245L1155 245L1145 245M1135 265L1125 275M1245 255L1235 265L1225 265L1215 265L1205 265L1195 265L1185 265L1175 265L1165 265M1395 275L1385 265L1375 265M1045 275L1035 285L1025 285L1015 295M1305 265L1295 275M1155 265L1145 255L1135 255M1425 275L1415 265L1405 265L1395 265M1225 255L1215 245L1205 245L1195 245M1455 275L1445 275L1435 275L1425 275L1415 275L1405 275L1395 275L1385 275L1375 275L1365 275L1355 275L1345 275L1335 275L1325 275L1315 275L1305 265L1295 265L1285 265L1275 265L1265 255L1255 255L1245 255L1235 255L1225 255L1215 255L1205 255L1195 255L1185 255L1175 255L1165 255L1155 265L1145 265L1135 265L1125 265L1115 275L1105 275L1095 275L1085 275L1075 275L1065 275L1055 275L1045 275L1035 275L1025 275L1015 275" stroke="#3a7cc3" stroke-width="1.67"></path><path d="M1012.5 275 a2.5 2.5 0 1 0 5 0 a2.5 2.5 0 1 0 -5 0zM1062.5 285 a2.5 2.5 0 1 0 5 0 a2.5 2.5 0 1 0 -5 0zM1312.5 265 a2.5 2.5 0 1 0 5 0 a2.5 2.5 0 1 0 -5 0zM1142.5 245 a2.5 2.5 0 1 0 5 0 a2.5 2.5 0 1 0 -5 0zM1122.5 275 a2.5 2.5 0 1 0 5 0 a2.5 2.5 0 1 0 -5 0zM1162.5 265 a2.5 2.5 0 1 0 5 0 a2.5 2.5 0 1 0 -5 0zM1372.5 265 a2.5 2.5 0 1 0 5 0 a2.5 2.5 0 1 0 -5 0zM1012.5 295 a2.5 2.5 0 1 0 5 0 a2.5 2.5 0 1 0 -5 0zM1292.5 275 a2.5 2.5 0 1 0 5 0 a2.5 2.5 0 1 0 -5 0zM1132.5 255 a2.5 2.5 0 1 0 5 0 a2.5 2.5 0 1 0 -5 0zM1392.5 265 a2.5 2.5 0 1 0 5 0 a2.5 2.5 0 1 0 -5 0zM1192.5 245 a2.5 2.5 0 1 0 5 0 a2.5 2.5 0 1 0 -5 0z" fill="#3a7cc3"></path><path d="M1185 295L1175 295M1265 295L1255 285L1245 285L1235 285L1225 285L1215 285M1215 295L1205 305M1285 295L1275 305L1265 305L1255 305M1155 285L1145 295L1135 295L1125 295L1115 295L1105 295L1095 295L1085 295L1075 295L1065 295L1055 295L1045 295L1035 295M1245 305L1235 315L1225 315L1215 315L1205 315L1195 315L1185 325L1175 325M1235 305L1225 295M1175 285L1165 275L1155 275L1145 275L1135 275M1205 295L1195 285L1185 285L1175 275M1455 295L1445 295L1435 295L1425 295L1415 295L1405 295L1395 295L1385 295L1375 295L1365 295L1355 295L1345 295L1335 295L1325 295L1315 295L1305 295L1295 295L1285 295L1275 295L1265 295L1255 295L1245 305L1235 305L1225 305L1215 295L1205 295L1195 295L1185 295L1175 285L1165 285L1155 285L1145 285L1135 285L1125 285L1115 285L1105 285" stroke="#3a7cc3" stroke-width="1.67"></path><path d="M1102.5 285 a2.5 2.5 0 1 0 5 0 a2.5 2.5 0 1 0 -5 0zM1172.5 295 a2.5 2.5 0 1 0 5 0 a2.5 2.5 0 1 0 -5 0zM1212.5 285 a2.5 2.5 0 1 0 5 0 a2.5 2.5 0 1 0 -5 0zM1202.5 305 a2.5 2.5 0 1 0 5 0 a2.5 2.5 0 1 0 -5 0zM1252.5 305 a2.5 2.5 0 1 0 5 0 a2.5 2.5 0 1 0 -5 0zM1032.5 295 a2.5 2.5 0 1 0 5 0 a2.5 2.5 0 1 0 -5 0zM1172.5 325 a2.5 2.5 0 1 0 5 0 a2.5 2.5 0 1 0 -5 0zM1222.5 295 a2.5 2.5 0 1 0 5 0 a2.5 2.5 0 1 0 -5 0zM1132.5 275 a2.5 2.5 0 1 0 5 0 a2.5 2.5 0 1 0 -5 0zM1172.5 275 a2.5 2.5 0 1 0 5 0 a2.5 2.5 0 1 0 -5 0z" fill="#3a7cc3"></path><path d="M1365 255L1355 245L1345 245L1335 245L1325 245M1345 255L1335 265M1305 255L1295 245M1355 255L1345 265M1455 265L1445 255L1435 255L1425 255L1415 255L1405 255L1395 255L1385 255L1375 255L1365 255L1355 255L1345 255L1335 255L1325 255L1315 255L1305 255L1295 255" stroke="#3a7cc3" stroke-width="1.67"></path><path d="M1292.5 255 a2.5 2.5 0 1 0 5 0 a2.5 2.5 0 1 0 -5 0zM1322.5 245 a2.5 2.5 0 1 0 5 0 a2.5 2.5 0 1 0 -5 0zM1332.5 265 a2.5 2.5 0 1 0 5 0 a2.5 2.5 0 1 0 -5 0zM1292.5 245 a2.5 2.5 0 1 0 5 0 a2.5 2.5 0 1 0 -5 0zM1342.5 265 a2.5 2.5 0 1 0 5 0 a2.5 2.5 0 1 0 -5 0z" fill="#3a7cc3"></path><path d="M1365 305L1355 315M1425 305L1415 315L1405 315L1395 315M1385 305L1375 315L1365 315M1455 305L1445 305L1435 305L1425 305L1415 305L1405 305L1395 305L1385 305L1375 305L1365 305L1355 305L1345 305L1335 305L1325 305L1315 305" stroke="#dd1133" stroke-width="1.67"></path><path d="M1312.5 305 a2.5 2.5 0 1 0 5 0 a2.5 2.5 0 1 0 -5 0zM1352.5 315 a2.5 2.5 0 1 0 5 0 a2.5 2.5 0 1 0 -5 0zM1392.5 315 a2.5 2.5 0 1 0 5 0 a2.5 2.5 0 1 0 -5 0zM1362.5 315 a2.5 2.5 0 1 0 5 0 a2.5 2.5 0 1 0 -5 0z" fill="#dd1133"></path><path d="M1395 335L1385 325L1375 325L1365 325M1365 335L1355 345L1345 345L1335 345M1425 325L1415 335L1405 335L1395 345M1455 315L1445 325L1435 325L1425 325L1415 325L1405 325L1395 335L1385 335L1375 335L1365 335L1355 335" stroke="#3a7cc3" stroke-width="1.67"></path><path d="M1352.5 335 a2.5 2.5 0 1 0 5 0 a2.5 2.5 0 1 0 -5 0zM1362.5 325 a2.5 2.5 0 1 0 5 0 a2.5 2.5 0 1 0 -5 0zM1332.5 345 a2.5 2.5 0 1 0 5 0 a2.5 2.5 0 1 0 -5 0zM1392.5 345 a2.5 2.5 0 1 0 5 0 a2.5 2.5 0 1 0 -5 0z" fill="#3a7cc3"></path><path d="M1295 235L1285 225L1275 225L1265 225M1195 225L1185 235L1175 235L1165 235M1225 235L1215 225M1335 235L1325 225L1315 225L1305 225L1295 225M1345 235L1335 225M1355 235L1345 225M1285 235L1275 245L1265 245L1255 245L1245 245L1235 245L1225 245M1315 235L1305 245M1005 195L995 205L985 205L975 215L965 215L955 215L945 215L935 215L925 215L915 215L905 215L895 215L885 215L875 215L865 215L855 215L845 215M1015 195L1005 205L995 215L985 215L975 225L965 225L955 225L945 225L935 225L925 225L915 225L905 225L895 225L885 225L875 225L865 225M1115 225L1105 235L1095 235L1085 235L1075 235L1065 235L1055 225L1045 225L1035 225L1025 225L1015 225L1005 225M1455 245L1445 245L1435 245L1425 245L1415 245L1405 245L1395 245L1385 245L1375 245L1365 235L1355 235L1345 235L1335 235L1325 235L1315 235L1305 235L1295 235L1285 235L1275 235L1265 235L1255 235L1245 235L1235 235L1225 235L1215 235L1205 225L1195 225L1185 225L1175 225L1165 225L1155 225L1145 225L1135 225L1125 225L1115 225L1105 225L1095 225L1085 225L1075 215L1065 215L1055 215L1045 215L1035 205L1025 205L1015 195L1005 195L995 195" stroke="#dd1133" stroke-width="1.67"></path><path d="M992.5 195 a2.5 2.5 0 1 0 5 0 a2.5 2.5 0 1 0 -5 0zM1262.5 225 a2.5 2.5 0 1 0 5 0 a2.5 2.5 0 1 0 -5 0zM1162.5 235 a2.5 2.5 0 1 0 5 0 a2.5 2.5 0 1 0 -5 0zM1212.5 225 a2.5 2.5 0 1 0 5 0 a2.5 2.5 0 1 0 -5 0zM1292.5 225 a2.5 2.5 0 1 0 5 0 a2.5 2.5 0 1 0 -5 0zM1332.5 225 a2.5 2.5 0 1 0 5 0 a2.5 2.5 0 1 0 -5 0zM1342.5 225 a2.5 2.5 0 1 0 5 0 a2.5 2.5 0 1 0 -5 0zM1222.5 245 a2.5 2.5 0 1 0 5 0 a2.5 2.5 0 1 0 -5 0zM1302.5 245 a2.5 2.5 0 1 0 5 0 a2.5 2.5 0 1 0 -5 0zM842.5 215 a2.5 2.5 0 1 0 5 0 a2.5 2.5 0 1 0 -5 0zM862.5 225 a2.5 2.5 0 1 0 5 0 a2.5 2.5 0 1 0 -5 0zM1002.5 225 a2.5 2.5 0 1 0 5 0 a2.5 2.5 0 1 0 -5 0z" fill="#dd1133"></path><path d="M1455 235L1445 235L1435 235L1425 235L1415 235L1405 235L1395 235L1385 235" stroke="#dd1133" stroke-width="1.67"></path><path d="M1382.5 235 a2.5 2.5 0 1 0 5 0 a2.5 2.5 0 1 0 -5 0z" fill="#dd1133"></path><path d="M995 375L985 365L975 365L965 365L955 365L945 365L935 365L925 365L915 365L905 365L895 365L885 355L875 355L865 355L855 355L845 355L835 355L825 355L815 355L805 355M1195 375L1185 365L1175 365L1165 365L1155 365L1145 365L1135 365L1125 365L1115 365L1105 365L1095 365L1085 365L1075 365M1225 375L1215 365M1325 365L1315 375L1305 375L1295 375M1085 375L1075 385L1065 385L1055 385L1045 385L1035 385L1025 385L1015 385L1005 395M1095 375L1085 385L1075 395L1065 395L1055 395M1025 375L1015 365L1005 365L995 365L985 355L975 345L965 345L955 345L945 345L935 345M1125 375L1115 385L1105 385M1155 375L1145 385M1265 375L1255 365M1445 345L1435 345M1175 375L1165 385M1455 335L1445 345L1435 355L1425 355L1415 355L1405 355L1395 365L1385 365L1375 365L1365 365L1355 365L1345 365L1335 365L1325 365L1315 365L1305 365L1295 365L1285 375L1275 375L1265 375L1255 375L1245 375L1235 375L1225 375L1215 375L1205 375L1195 375L1185 375L1175 375L1165 375L1155 375L1145 375L1135 375L1125 375L1115 375L1105 375L1095 375L1085 375L1075 375L1065 375L1055 375L1045 375L1035 375L1025 375L1015 375L1005 375L995 375L985 375" stroke="#dd1133" stroke-width="1.67"></path><path d="M982.5 375 a2.5 2.5 0 1 0 5 0 a2.5 2.5 0 1 0 -5 0zM802.5 355 a2.5 2.5 0 1 0 5 0 a2.5 2.5 0 1 0 -5 0zM1072.5 365 a2.5 2.5 0 1 0 5 0 a2.5 2.5 0 1 0 -5 0zM1212.5 365 a2.5 2.5 0 1 0 5 0 a2.5 2.5 0 1 0 -5 0zM1292.5 375 a2.5 2.5 0 1 0 5 0 a2.5 2.5 0 1 0 -5 0zM1002.5 395 a2.5 2.5 0 1 0 5 0 a2.5 2.5 0 1 0 -5 0zM1052.5 395 a2.5 2.5 0 1 0 5 0 a2.5 2.5 0 1 0 -5 0zM932.5 345 a2.5 2.5 0 1 0 5 0 a2.5 2.5 0 1 0 -5 0zM1102.5 385 a2.5 2.5 0 1 0 5 0 a2.5 2.5 0 1 0 -5 0zM1142.5 385 a2.5 2.5 0 1 0 5 0 a2.5 2.5 0 1 0 -5 0zM1252.5 365 a2.5 2.5 0 1 0 5 0 a2.5 2.5 0 1 0 -5 0zM1432.5 345 a2.5 2.5 0 1 0 5 0 a2.5 2.5 0 1 0 -5 0zM1162.5 385 a2.5 2.5 0 1 0 5 0 a2.5 2.5 0 1 0 -5 0z" fill="#dd1133"></path><path d="M1425 225L1415 215L1405 215M945 195L935 185L925 185M1145 215L1135 205L1125 195L1115 195L1105 195L1095 195L1085 195L1075 195L1065 195L1055 195L1045 195M955 195L945 185L935 175L925 175L915 175M1235 215L1225 225M1115 215L1105 205L1095 205L1085 205M1125 215L1115 205M885 195L875 205L865 205L855 205L845 205L835 195L825 195L815 195L805 195L795 195M1375 225L1365 215L1355 205M1325 215L1315 205L1305 205L1295 205M1035 195L1025 185L1015 175L1005 175L995 175L985 175L975 175M1245 215L1235 225M965 185L955 185L945 175M905 195L895 185L885 185M1455 225L1445 225L1435 225L1425 225L1415 225L1405 225L1395 225L1385 225L1375 225L1365 225L1355 215L1345 215L1335 215L1325 215L1315 215L1305 215L1295 215L1285 215L1275 215L1265 215L1255 215L1245 215L1235 215L1225 215L1215 215L1205 215L1195 215L1185 215L1175 215L1165 215L1155 215L1145 215L1135 215L1125 215L1115 215L1105 215L1095 215L1085 215L1075 205L1065 205L1055 205L1045 205L1035 195L1025 195L1015 185L1005 185L995 185L985 185L975 185L965 185L955 195L945 195L935 195L925 195L915 195L905 195L895 195L885 195L875 195" stroke="#dd1133" stroke-width="1.67"></path><path d="M872.5 195 a2.5 2.5 0 1 0 5 0 a2.5 2.5 0 1 0 -5 0zM1402.5 215 a2.5 2.5 0 1 0 5 0 a2.5 2.5 0 1 0 -5 0zM922.5 185 a2.5 2.5 0 1 0 5 0 a2.5 2.5 0 1 0 -5 0zM1042.5 195 a2.5 2.5 0 1 0 5 0 a2.5 2.5 0 1 0 -5 0zM912.5 175 a2.5 2.5 0 1 0 5 0 a2.5 2.5 0 1 0 -5 0zM1222.5 225 a2.5 2.5 0 1 0 5 0 a2.5 2.5 0 1 0 -5 0zM1082.5 205 a2.5 2.5 0 1 0 5 0 a2.5 2.5 0 1 0 -5 0zM1112.5 205 a2.5 2.5 0 1 0 5 0 a2.5 2.5 0 1 0 -5 0zM792.5 195 a2.5 2.5 0 1 0 5 0 a2.5 2.5 0 1 0 -5 0zM1352.5 205 a2.5 2.5 0 1 0 5 0 a2.5 2.5 0 1 0 -5 0zM1292.5 205 a2.5 2.5 0 1 0 5 0 a2.5 2.5 0 1 0 -5 0zM972.5 175 a2.5 2.5 0 1 0 5 0 a2.5 2.5 0 1 0 -5 0zM1232.5 225 a2.5 2.5 0 1 0 5 0 a2.5 2.5 0 1 0 -5 0zM942.5 175 a2.5 2.5 0 1 0 5 0 a2.5 2.5 0 1 0 -5 0zM882.5 185 a2.5 2.5 0 1 0 5 0 a2.5 2.5 0 1 0 -5 0z" fill="#dd1133"></path><path d="M1455 215L1445 215L1435 215" stroke="#3a7cc3" stroke-width="1.67"></path><path d="M1432.5 215 a2.5 2.5 0 1 0 5 0 a2.5 2.5 0 1 0 -5 0z" fill="#3a7cc3"></path><path d="M1165 405L1155 395L1145 395L1135 395L1125 395L1115 395L1105 395L1095 395L1085 395M1225 385L1215 385L1205 385L1195 385L1185 385L1175 385M1175 395L1165 395M1145 405L1135 415L1125 415L1115 415L1105 415M1215 395L1205 395L1195 395M1345 385L1335 375L1325 375M1255 385L1245 395M1355 385L1345 375M1455 355L1445 355L1435 365L1425 365L1415 365L1405 365L1395 375L1385 375L1375 375L1365 385L1355 385L1345 385L1335 385L1325 385L1315 385L1305 385L1295 385L1285 385L1275 385L1265 385L1255 385L1245 385L1235 385L1225 385L1215 395L1205 405L1195 405L1185 395L1175 395L1165 405L1155 405L1145 405L1135 405L1125 405L1115 405" stroke="#dd1133" stroke-width="1.67"></path><path d="M1112.5 405 a2.5 2.5 0 1 0 5 0 a2.5 2.5 0 1 0 -5 0zM1082.5 395 a2.5 2.5 0 1 0 5 0 a2.5 2.5 0 1 0 -5 0zM1172.5 385 a2.5 2.5 0 1 0 5 0 a2.5 2.5 0 1 0 -5 0zM1162.5 395 a2.5 2.5 0 1 0 5 0 a2.5 2.5 0 1 0 -5 0zM1102.5 415 a2.5 2.5 0 1 0 5 0 a2.5 2.5 0 1 0 -5 0zM1192.5 395 a2.5 2.5 0 1 0 5 0 a2.5 2.5 0 1 0 -5 0zM1322.5 375 a2.5 2.5 0 1 0 5 0 a2.5 2.5 0 1 0 -5 0zM1242.5 395 a2.5 2.5 0 1 0 5 0 a2.5 2.5 0 1 0 -5 0zM1342.5 375 a2.5 2.5 0 1 0 5 0 a2.5 2.5 0 1 0 -5 0z" fill="#dd1133"></path><path d="M1405 205L1395 195L1385 195L1375 195M1415 205L1405 195M1455 205L1445 205L1435 205L1425 205L1415 205L1405 205L1395 205" stroke="#3a7cc3" stroke-width="1.67"></path><path d="M1392.5 205 a2.5 2.5 0 1 0 5 0 a2.5 2.5 0 1 0 -5 0zM1372.5 195 a2.5 2.5 0 1 0 5 0 a2.5 2.5 0 1 0 -5 0zM1402.5 195 a2.5 2.5 0 1 0 5 0 a2.5 2.5 0 1 0 -5 0z" fill="#3a7cc3"></path><path d="M1245 405L1235 405L1225 405M1265 395L1255 395M1455 365L1445 365L1435 375L1425 375L1415 375L1405 375L1395 385L1385 385L1375 385L1365 395L1355 395L1345 395L1335 395L1325 395L1315 395L1305 395L1295 395L1285 395L1275 395L1265 395L1255 405L1245 405L1235 395L1225 395L1215 405L1205 415L1195 415L1185 415L1175 405" stroke="#3a7cc3" stroke-width="1.67"></path><path d="M1172.5 405 a2.5 2.5 0 1 0 5 0 a2.5 2.5 0 1 0 -5 0zM1222.5 405 a2.5 2.5 0 1 0 5 0 a2.5 2.5 0 1 0 -5 0zM1252.5 395 a2.5 2.5 0 1 0 5 0 a2.5 2.5 0 1 0 -5 0z" fill="#3a7cc3"></path><path d="M1245 205L1235 195L1225 195L1215 195L1205 195L1195 195L1185 195L1175 195L1165 195M1265 205L1255 195L1245 195M1425 195L1415 195M1345 185L1335 195L1325 205M1365 185L1355 195L1345 195L1335 205M1275 205L1265 195L1255 185L1245 185L1235 185M1455 195L1445 195L1435 195L1425 195L1415 185L1405 185L1395 185L1385 185L1375 185L1365 185L1355 185L1345 185L1335 185L1325 195L1315 195L1305 195L1295 195L1285 205L1275 205L1265 205L1255 205L1245 205L1235 205L1225 205L1215 205" stroke="#dd1133" stroke-width="1.67"></path><path d="M1212.5 205 a2.5 2.5 0 1 0 5 0 a2.5 2.5 0 1 0 -5 0zM1162.5 195 a2.5 2.5 0 1 0 5 0 a2.5 2.5 0 1 0 -5 0zM1242.5 195 a2.5 2.5 0 1 0 5 0 a2.5 2.5 0 1 0 -5 0zM1412.5 195 a2.5 2.5 0 1 0 5 0 a2.5 2.5 0 1 0 -5 0zM1322.5 205 a2.5 2.5 0 1 0 5 0 a2.5 2.5 0 1 0 -5 0zM1332.5 205 a2.5 2.5 0 1 0 5 0 a2.5 2.5 0 1 0 -5 0zM1232.5 185 a2.5 2.5 0 1 0 5 0 a2.5 2.5 0 1 0 -5 0z" fill="#dd1133"></path><path d="M1155 425L1145 415M1165 425L1155 415M1175 425L1165 415M1455 375L1445 385L1435 385L1425 385L1415 385L1405 385L1395 395L1385 395L1375 395L1365 405L1355 405L1345 405L1335 405L1325 405L1315 405L1305 405L1295 405L1285 405L1275 405L1265 405L1255 415L1245 415L1235 415L1225 415L1215 415L1205 425L1195 425L1185 425L1175 425L1165 425L1155 425L1145 425L1135 425L1125 425" stroke="#3a7cc3" stroke-width="1.67"></path><path d="M1122.5 425 a2.5 2.5 0 1 0 5 0 a2.5 2.5 0 1 0 -5 0zM1142.5 415 a2.5 2.5 0 1 0 5 0 a2.5 2.5 0 1 0 -5 0zM1152.5 415 a2.5 2.5 0 1 0 5 0 a2.5 2.5 0 1 0 -5 0zM1162.5 415 a2.5 2.5 0 1 0 5 0 a2.5 2.5 0 1 0 -5 0z" fill="#3a7cc3"></path><path d="M1205 165L1195 155M1295 165L1285 175L1275 175L1265 175L1255 175L1245 175L1235 175M1215 165L1205 155L1195 145L1185 145L1175 145L1165 145L1155 145L1145 145L1135 145M1265 165L1255 155M1235 165L1225 155L1215 155M1155 165L1145 175L1135 175L1125 175L1115 175L1105 175L1095 175L1085 175L1075 175L1065 175L1055 175L1045 175L1035 175L1025 175L1015 165M1305 165L1295 175L1285 185L1275 185L1265 185M1195 165L1185 175L1175 175L1165 175L1155 175L1145 185L1135 185L1125 185M1175 165L1165 155L1155 155L1145 155L1135 155L1125 155L1115 155L1105 155L1095 155L1085 155L1075 155L1065 155L1055 155L1045 155L1035 155M1245 165L1235 155L1225 145L1215 145L1205 145L1195 135L1185 135L1175 135L1165 135L1155 135L1145 135L1135 135L1125 135L1115 135M1455 185L1445 185L1435 185L1425 185L1415 175L1405 175L1395 175L1385 175L1375 175L1365 175L1355 175L1345 175L1335 175L1325 175L1315 165L1305 165L1295 165L1285 165L1275 165L1265 165L1255 165L1245 165L1235 165L1225 165L1215 165L1205 165L1195 165L1185 165L1175 165L1165 165L1155 165L1145 165L1135 165L1125 165L1115 165L1105 165L1095 165L1085 165L1075 165L1065 165L1055 165" stroke="#3a7cc3" stroke-width="1.67"></path><path d="M1052.5 165 a2.5 2.5 0 1 0 5 0 a2.5 2.5 0 1 0 -5 0zM1192.5 155 a2.5 2.5 0 1 0 5 0 a2.5 2.5 0 1 0 -5 0zM1232.5 175 a2.5 2.5 0 1 0 5 0 a2.5 2.5 0 1 0 -5 0zM1132.5 145 a2.5 2.5 0 1 0 5 0 a2.5 2.5 0 1 0 -5 0zM1252.5 155 a2.5 2.5 0 1 0 5 0 a2.5 2.5 0 1 0 -5 0zM1212.5 155 a2.5 2.5 0 1 0 5 0 a2.5 2.5 0 1 0 -5 0zM1012.5 165 a2.5 2.5 0 1 0 5 0 a2.5 2.5 0 1 0 -5 0zM1262.5 185 a2.5 2.5 0 1 0 5 0 a2.5 2.5 0 1 0 -5 0zM1122.5 185 a2.5 2.5 0 1 0 5 0 a2.5 2.5 0 1 0 -5 0zM1032.5 155 a2.5 2.5 0 1 0 5 0 a2.5 2.5 0 1 0 -5 0zM1112.5 135 a2.5 2.5 0 1 0 5 0 a2.5 2.5 0 1 0 -5 0z" fill="#3a7cc3"></path><path d="M1455 175L1445 175L1435 175L1425 175L1415 165L1405 165L1395 165" stroke="#3a7cc3" stroke-width="1.67"></path><path d="M1392.5 165 a2.5 2.5 0 1 0 5 0 a2.5 2.5 0 1 0 -5 0z" fill="#3a7cc3"></path><path d="M1275 415L1265 425M1105 435L1095 425L1085 425L1075 425L1065 425L1055 425L1045 425L1035 425M985 455L975 455L965 455M995 455L985 445L975 445L965 445L955 445L945 445L935 445L925 445L915 445L905 445M1295 415L1285 425L1275 425M1065 435L1055 445L1045 445L1035 445L1025 455L1015 455L1005 455M1305 415L1295 425M1005 445L995 445L985 435L975 435L965 435M1315 415L1305 425M1325 415L1315 425M1115 435L1105 425M1075 435L1065 445L1055 455L1045 455L1035 455M1455 395L1445 395L1435 395L1425 395L1415 395L1405 395L1395 405L1385 405L1375 405L1365 415L1355 415L1345 415L1335 415L1325 415L1315 415L1305 415L1295 415L1285 415L1275 415L1265 415L1255 425L1245 425L1235 425L1225 425L1215 425L1205 435L1195 435L1185 435L1175 435L1165 435L1155 435L1145 435L1135 435L1125 435L1115 435L1105 435L1095 435L1085 435L1075 435L1065 435L1055 435L1045 435L1035 435L1025 445L1015 445L1005 445L995 455L985 455L975 465L965 465L955 465" stroke="#3a7cc3" stroke-width="1.67"></path><path d="M952.5 465 a2.5 2.5 0 1 0 5 0 a2.5 2.5 0 1 0 -5 0zM1262.5 425 a2.5 2.5 0 1 0 5 0 a2.5 2.5 0 1 0 -5 0zM1032.5 425 a2.5 2.5 0 1 0 5 0 a2.5 2.5 0 1 0 -5 0zM962.5 455 a2.5 2.5 0 1 0 5 0 a2.5 2.5 0 1 0 -5 0zM902.5 445 a2.5 2.5 0 1 0 5 0 a2.5 2.5 0 1 0 -5 0zM1272.5 425 a2.5 2.5 0 1 0 5 0 a2.5 2.5 0 1 0 -5 0zM1002.5 455 a2.5 2.5 0 1 0 5 0 a2.5 2.5 0 1 0 -5 0zM1292.5 425 a2.5 2.5 0 1 0 5 0 a2.5 2.5 0 1 0 -5 0zM962.5 435 a2.5 2.5 0 1 0 5 0 a2.5 2.5 0 1 0 -5 0zM1302.5 425 a2.5 2.5 0 1 0 5 0 a2.5 2.5 0 1 0 -5 0zM1312.5 425 a2.5 2.5 0 1 0 5 0 a2.5 2.5 0 1 0 -5 0zM1102.5 425 a2.5 2.5 0 1 0 5 0 a2.5 2.5 0 1 0 -5 0zM1032.5 455 a2.5 2.5 0 1 0 5 0 a2.5 2.5 0 1 0 -5 0z" fill="#3a7cc3"></path><path d="M1385 155L1375 165M1345 165L1335 155L1325 155L1315 145L1305 145M1375 155L1365 145L1355 145M1455 165L1445 165L1435 165L1425 165L1415 155L1405 155L1395 155L1385 155L1375 155L1365 165L1355 165L1345 165L1335 165L1325 165L1315 155L1305 155L1295 155" stroke="#3a7cc3" stroke-width="1.67"></path><path d="M1292.5 155 a2.5 2.5 0 1 0 5 0 a2.5 2.5 0 1 0 -5 0zM1372.5 165 a2.5 2.5 0 1 0 5 0 a2.5 2.5 0 1 0 -5 0zM1302.5 145 a2.5 2.5 0 1 0 5 0 a2.5 2.5 0 1 0 -5 0zM1352.5 145 a2.5 2.5 0 1 0 5 0 a2.5 2.5 0 1 0 -5 0z" fill="#3a7cc3"></path><path d="M1115 445L1105 455M1095 445L1085 455L1075 455L1065 455M1335 425L1325 425M1125 445L1115 455M1135 445L1125 455M1445 405L1435 415M1145 445L1135 455M1155 445L1145 455M1225 435L1215 445M1455 405L1445 405L1435 405L1425 405L1415 405L1405 405L1395 415L1385 415L1375 415L1365 425L1355 425L1345 425L1335 425L1325 435L1315 435L1305 435L1295 435L1285 435L1275 435L1265 435L1255 435L1245 435L1235 435L1225 435L1215 435L1205 445L1195 445L1185 445L1175 445L1165 445L1155 445L1145 445L1135 445L1125 445L1115 445L1105 445L1095 445L1085 445" stroke="#3a7cc3" stroke-width="1.67"></path><path d="M1082.5 445 a2.5 2.5 0 1 0 5 0 a2.5 2.5 0 1 0 -5 0zM1102.5 455 a2.5 2.5 0 1 0 5 0 a2.5 2.5 0 1 0 -5 0zM1062.5 455 a2.5 2.5 0 1 0 5 0 a2.5 2.5 0 1 0 -5 0zM1322.5 425 a2.5 2.5 0 1 0 5 0 a2.5 2.5 0 1 0 -5 0zM1112.5 455 a2.5 2.5 0 1 0 5 0 a2.5 2.5 0 1 0 -5 0zM1122.5 455 a2.5 2.5 0 1 0 5 0 a2.5 2.5 0 1 0 -5 0zM1432.5 415 a2.5 2.5 0 1 0 5 0 a2.5 2.5 0 1 0 -5 0zM1132.5 455 a2.5 2.5 0 1 0 5 0 a2.5 2.5 0 1 0 -5 0zM1142.5 455 a2.5 2.5 0 1 0 5 0 a2.5 2.5 0 1 0 -5 0zM1212.5 445 a2.5 2.5 0 1 0 5 0 a2.5 2.5 0 1 0 -5 0z" fill="#3a7cc3"></path><path d="M1365 135L1355 125M1345 135L1335 145L1325 145M1295 135L1285 125L1275 115M1335 135L1325 125L1315 125M1385 145L1375 135L1365 125L1355 115L1345 115M1455 155L1445 155L1435 155L1425 155L1415 145L1405 145L1395 145L1385 145L1375 145L1365 135L1355 135L1345 135L1335 135L1325 135L1315 135L1305 135L1295 135L1285 135L1275 135L1265 135L1255 135" stroke="#3a7cc3" stroke-width="1.67"></path><path d="M1252.5 135 a2.5 2.5 0 1 0 5 0 a2.5 2.5 0 1 0 -5 0zM1352.5 125 a2.5 2.5 0 1 0 5 0 a2.5 2.5 0 1 0 -5 0zM1322.5 145 a2.5 2.5 0 1 0 5 0 a2.5 2.5 0 1 0 -5 0zM1272.5 115 a2.5 2.5 0 1 0 5 0 a2.5 2.5 0 1 0 -5 0zM1312.5 125 a2.5 2.5 0 1 0 5 0 a2.5 2.5 0 1 0 -5 0zM1342.5 115 a2.5 2.5 0 1 0 5 0 a2.5 2.5 0 1 0 -5 0z" fill="#3a7cc3"></path><path d="M995 465L985 475L975 485L965 485M1035 465L1025 475L1015 475L1005 475L995 475L985 485L975 495L965 495L955 495L945 495M1345 435L1335 445L1325 455L1315 455M1305 445L1295 455L1285 455L1275 455L1265 455L1255 465L1245 465L1235 455M1365 435L1355 445L1345 445L1335 455L1325 465L1315 465L1305 465M875 465L865 475M935 465L925 475L915 475M1215 455L1205 465L1195 465L1185 475L1175 475L1165 475L1155 475L1145 475L1135 475L1125 475L1115 475L1105 475L1095 475L1085 475L1075 475M1385 425L1375 435L1365 445L1355 455L1345 455L1335 465L1325 475L1315 475M1415 415L1405 425L1395 435L1385 435L1375 445L1365 455L1355 465L1345 465L1335 475L1325 485L1315 485L1305 485L1295 485M1235 445L1225 445M845 465L835 455L825 455L815 455L805 455L795 455M835 465L825 475L815 475L805 475L795 475M1225 455L1215 465L1205 475L1195 475L1185 485L1175 485L1165 485L1155 485L1145 485L1135 485L1125 485L1115 485L1105 485L1095 485M925 465L915 455L905 455L895 455L885 445L875 445L865 445L855 445L845 455M1185 465L1175 455L1165 455L1155 455M1455 415L1445 425L1435 425L1425 415L1415 415L1405 415L1395 425L1385 425L1375 425L1365 435L1355 435L1345 435L1335 435L1325 445L1315 445L1305 445L1295 445L1285 445L1275 445L1265 445L1255 445L1245 445L1235 445L1225 455L1215 455L1205 455L1195 455L1185 465L1175 465L1165 465L1155 465L1145 465L1135 465L1125 465L1115 465L1105 465L1095 465L1085 465L1075 465L1065 465L1055 465L1045 465L1035 465L1025 465L1015 465L1005 465L995 465L985 465L975 475L965 475L955 475L945 465L935 465L925 465L915 465L905 465L895 465L885 465L875 465L865 465L855 465L845 465L835 465L825 465L815 465" stroke="#3a7cc3" stroke-width="1.67"></path><path d="M812.5 465 a2.5 2.5 0 1 0 5 0 a2.5 2.5 0 1 0 -5 0zM962.5 485 a2.5 2.5 0 1 0 5 0 a2.5 2.5 0 1 0 -5 0zM942.5 495 a2.5 2.5 0 1 0 5 0 a2.5 2.5 0 1 0 -5 0zM1312.5 455 a2.5 2.5 0 1 0 5 0 a2.5 2.5 0 1 0 -5 0zM1232.5 455 a2.5 2.5 0 1 0 5 0 a2.5 2.5 0 1 0 -5 0zM1302.5 465 a2.5 2.5 0 1 0 5 0 a2.5 2.5 0 1 0 -5 0zM862.5 475 a2.5 2.5 0 1 0 5 0 a2.5 2.5 0 1 0 -5 0zM912.5 475 a2.5 2.5 0 1 0 5 0 a2.5 2.5 0 1 0 -5 0zM1072.5 475 a2.5 2.5 0 1 0 5 0 a2.5 2.5 0 1 0 -5 0zM1312.5 475 a2.5 2.5 0 1 0 5 0 a2.5 2.5 0 1 0 -5 0zM1292.5 485 a2.5 2.5 0 1 0 5 0 a2.5 2.5 0 1 0 -5 0zM1222.5 445 a2.5 2.5 0 1 0 5 0 a2.5 2.5 0 1 0 -5 0zM792.5 455 a2.5 2.5 0 1 0 5 0 a2.5 2.5 0 1 0 -5 0zM792.5 475 a2.5 2.5 0 1 0 5 0 a2.5 2.5 0 1 0 -5 0zM1092.5 485 a2.5 2.5 0 1 0 5 0 a2.5 2.5 0 1 0 -5 0zM842.5 455 a2.5 2.5 0 1 0 5 0 a2.5 2.5 0 1 0 -5 0zM1152.5 455 a2.5 2.5 0 1 0 5 0 a2.5 2.5 0 1 0 -5 0z" fill="#3a7cc3"></path></g></g><defs><mask id="SvgjsMask1850"><rect width="1440" height="560" fill="#ffffff"></rect></mask><mask id="SvgjsMask1851"><rect width="1440" height="560" fill="white"></rect><path d="M1283.75 285 a1.25 1.25 0 1 0 2.5 0 a1.25 1.25 0 1 0 -2.5 0zM1233.75 275 a1.25 1.25 0 1 0 2.5 0 a1.25 1.25 0 1 0 -2.5 0z" fill="black"></path><path d="M1013.75 275 a1.25 1.25 0 1 0 2.5 0 a1.25 1.25 0 1 0 -2.5 0zM1063.75 285 a1.25 1.25 0 1 0 2.5 0 a1.25 1.25 0 1 0 -2.5 0zM1313.75 265 a1.25 1.25 0 1 0 2.5 0 a1.25 1.25 0 1 0 -2.5 0zM1143.75 245 a1.25 1.25 0 1 0 2.5 0 a1.25 1.25 0 1 0 -2.5 0zM1123.75 275 a1.25 1.25 0 1 0 2.5 0 a1.25 1.25 0 1 0 -2.5 0zM1163.75 265 a1.25 1.25 0 1 0 2.5 0 a1.25 1.25 0 1 0 -2.5 0zM1373.75 265 a1.25 1.25 0 1 0 2.5 0 a1.25 1.25 0 1 0 -2.5 0zM1013.75 295 a1.25 1.25 0 1 0 2.5 0 a1.25 1.25 0 1 0 -2.5 0zM1293.75 275 a1.25 1.25 0 1 0 2.5 0 a1.25 1.25 0 1 0 -2.5 0zM1133.75 255 a1.25 1.25 0 1 0 2.5 0 a1.25 1.25 0 1 0 -2.5 0zM1393.75 265 a1.25 1.25 0 1 0 2.5 0 a1.25 1.25 0 1 0 -2.5 0zM1193.75 245 a1.25 1.25 0 1 0 2.5 0 a1.25 1.25 0 1 0 -2.5 0z" fill="black"></path><path d="M1103.75 285 a1.25 1.25 0 1 0 2.5 0 a1.25 1.25 0 1 0 -2.5 0zM1173.75 295 a1.25 1.25 0 1 0 2.5 0 a1.25 1.25 0 1 0 -2.5 0zM1213.75 285 a1.25 1.25 0 1 0 2.5 0 a1.25 1.25 0 1 0 -2.5 0zM1203.75 305 a1.25 1.25 0 1 0 2.5 0 a1.25 1.25 0 1 0 -2.5 0zM1253.75 305 a1.25 1.25 0 1 0 2.5 0 a1.25 1.25 0 1 0 -2.5 0zM1033.75 295 a1.25 1.25 0 1 0 2.5 0 a1.25 1.25 0 1 0 -2.5 0zM1173.75 325 a1.25 1.25 0 1 0 2.5 0 a1.25 1.25 0 1 0 -2.5 0zM1223.75 295 a1.25 1.25 0 1 0 2.5 0 a1.25 1.25 0 1 0 -2.5 0zM1133.75 275 a1.25 1.25 0 1 0 2.5 0 a1.25 1.25 0 1 0 -2.5 0zM1173.75 275 a1.25 1.25 0 1 0 2.5 0 a1.25 1.25 0 1 0 -2.5 0z" fill="black"></path><path d="M1293.75 255 a1.25 1.25 0 1 0 2.5 0 a1.25 1.25 0 1 0 -2.5 0zM1323.75 245 a1.25 1.25 0 1 0 2.5 0 a1.25 1.25 0 1 0 -2.5 0zM1333.75 265 a1.25 1.25 0 1 0 2.5 0 a1.25 1.25 0 1 0 -2.5 0zM1293.75 245 a1.25 1.25 0 1 0 2.5 0 a1.25 1.25 0 1 0 -2.5 0zM1343.75 265 a1.25 1.25 0 1 0 2.5 0 a1.25 1.25 0 1 0 -2.5 0z" fill="black"></path><path d="M1313.75 305 a1.25 1.25 0 1 0 2.5 0 a1.25 1.25 0 1 0 -2.5 0zM1353.75 315 a1.25 1.25 0 1 0 2.5 0 a1.25 1.25 0 1 0 -2.5 0zM1393.75 315 a1.25 1.25 0 1 0 2.5 0 a1.25 1.25 0 1 0 -2.5 0zM1363.75 315 a1.25 1.25 0 1 0 2.5 0 a1.25 1.25 0 1 0 -2.5 0z" fill="black"></path><path d="M1353.75 335 a1.25 1.25 0 1 0 2.5 0 a1.25 1.25 0 1 0 -2.5 0zM1363.75 325 a1.25 1.25 0 1 0 2.5 0 a1.25 1.25 0 1 0 -2.5 0zM1333.75 345 a1.25 1.25 0 1 0 2.5 0 a1.25 1.25 0 1 0 -2.5 0zM1393.75 345 a1.25 1.25 0 1 0 2.5 0 a1.25 1.25 0 1 0 -2.5 0z" fill="black"></path><path d="M993.75 195 a1.25 1.25 0 1 0 2.5 0 a1.25 1.25 0 1 0 -2.5 0zM1263.75 225 a1.25 1.25 0 1 0 2.5 0 a1.25 1.25 0 1 0 -2.5 0zM1163.75 235 a1.25 1.25 0 1 0 2.5 0 a1.25 1.25 0 1 0 -2.5 0zM1213.75 225 a1.25 1.25 0 1 0 2.5 0 a1.25 1.25 0 1 0 -2.5 0zM1293.75 225 a1.25 1.25 0 1 0 2.5 0 a1.25 1.25 0 1 0 -2.5 0zM1333.75 225 a1.25 1.25 0 1 0 2.5 0 a1.25 1.25 0 1 0 -2.5 0zM1343.75 225 a1.25 1.25 0 1 0 2.5 0 a1.25 1.25 0 1 0 -2.5 0zM1223.75 245 a1.25 1.25 0 1 0 2.5 0 a1.25 1.25 0 1 0 -2.5 0zM1303.75 245 a1.25 1.25 0 1 0 2.5 0 a1.25 1.25 0 1 0 -2.5 0zM843.75 215 a1.25 1.25 0 1 0 2.5 0 a1.25 1.25 0 1 0 -2.5 0zM863.75 225 a1.25 1.25 0 1 0 2.5 0 a1.25 1.25 0 1 0 -2.5 0zM1003.75 225 a1.25 1.25 0 1 0 2.5 0 a1.25 1.25 0 1 0 -2.5 0z" fill="black"></path><path d="M1383.75 235 a1.25 1.25 0 1 0 2.5 0 a1.25 1.25 0 1 0 -2.5 0z" fill="black"></path><path d="M983.75 375 a1.25 1.25 0 1 0 2.5 0 a1.25 1.25 0 1 0 -2.5 0zM803.75 355 a1.25 1.25 0 1 0 2.5 0 a1.25 1.25 0 1 0 -2.5 0zM1073.75 365 a1.25 1.25 0 1 0 2.5 0 a1.25 1.25 0 1 0 -2.5 0zM1213.75 365 a1.25 1.25 0 1 0 2.5 0 a1.25 1.25 0 1 0 -2.5 0zM1293.75 375 a1.25 1.25 0 1 0 2.5 0 a1.25 1.25 0 1 0 -2.5 0zM1003.75 395 a1.25 1.25 0 1 0 2.5 0 a1.25 1.25 0 1 0 -2.5 0zM1053.75 395 a1.25 1.25 0 1 0 2.5 0 a1.25 1.25 0 1 0 -2.5 0zM933.75 345 a1.25 1.25 0 1 0 2.5 0 a1.25 1.25 0 1 0 -2.5 0zM1103.75 385 a1.25 1.25 0 1 0 2.5 0 a1.25 1.25 0 1 0 -2.5 0zM1143.75 385 a1.25 1.25 0 1 0 2.5 0 a1.25 1.25 0 1 0 -2.5 0zM1253.75 365 a1.25 1.25 0 1 0 2.5 0 a1.25 1.25 0 1 0 -2.5 0zM1433.75 345 a1.25 1.25 0 1 0 2.5 0 a1.25 1.25 0 1 0 -2.5 0zM1163.75 385 a1.25 1.25 0 1 0 2.5 0 a1.25 1.25 0 1 0 -2.5 0z" fill="black"></path><path d="M873.75 195 a1.25 1.25 0 1 0 2.5 0 a1.25 1.25 0 1 0 -2.5 0zM1403.75 215 a1.25 1.25 0 1 0 2.5 0 a1.25 1.25 0 1 0 -2.5 0zM923.75 185 a1.25 1.25 0 1 0 2.5 0 a1.25 1.25 0 1 0 -2.5 0zM1043.75 195 a1.25 1.25 0 1 0 2.5 0 a1.25 1.25 0 1 0 -2.5 0zM913.75 175 a1.25 1.25 0 1 0 2.5 0 a1.25 1.25 0 1 0 -2.5 0zM1223.75 225 a1.25 1.25 0 1 0 2.5 0 a1.25 1.25 0 1 0 -2.5 0zM1083.75 205 a1.25 1.25 0 1 0 2.5 0 a1.25 1.25 0 1 0 -2.5 0zM1113.75 205 a1.25 1.25 0 1 0 2.5 0 a1.25 1.25 0 1 0 -2.5 0zM793.75 195 a1.25 1.25 0 1 0 2.5 0 a1.25 1.25 0 1 0 -2.5 0zM1353.75 205 a1.25 1.25 0 1 0 2.5 0 a1.25 1.25 0 1 0 -2.5 0zM1293.75 205 a1.25 1.25 0 1 0 2.5 0 a1.25 1.25 0 1 0 -2.5 0zM973.75 175 a1.25 1.25 0 1 0 2.5 0 a1.25 1.25 0 1 0 -2.5 0zM1233.75 225 a1.25 1.25 0 1 0 2.5 0 a1.25 1.25 0 1 0 -2.5 0zM943.75 175 a1.25 1.25 0 1 0 2.5 0 a1.25 1.25 0 1 0 -2.5 0zM883.75 185 a1.25 1.25 0 1 0 2.5 0 a1.25 1.25 0 1 0 -2.5 0z" fill="black"></path><path d="M1433.75 215 a1.25 1.25 0 1 0 2.5 0 a1.25 1.25 0 1 0 -2.5 0z" fill="black"></path><path d="M1113.75 405 a1.25 1.25 0 1 0 2.5 0 a1.25 1.25 0 1 0 -2.5 0zM1083.75 395 a1.25 1.25 0 1 0 2.5 0 a1.25 1.25 0 1 0 -2.5 0zM1173.75 385 a1.25 1.25 0 1 0 2.5 0 a1.25 1.25 0 1 0 -2.5 0zM1163.75 395 a1.25 1.25 0 1 0 2.5 0 a1.25 1.25 0 1 0 -2.5 0zM1103.75 415 a1.25 1.25 0 1 0 2.5 0 a1.25 1.25 0 1 0 -2.5 0zM1193.75 395 a1.25 1.25 0 1 0 2.5 0 a1.25 1.25 0 1 0 -2.5 0zM1323.75 375 a1.25 1.25 0 1 0 2.5 0 a1.25 1.25 0 1 0 -2.5 0zM1243.75 395 a1.25 1.25 0 1 0 2.5 0 a1.25 1.25 0 1 0 -2.5 0zM1343.75 375 a1.25 1.25 0 1 0 2.5 0 a1.25 1.25 0 1 0 -2.5 0z" fill="black"></path><path d="M1393.75 205 a1.25 1.25 0 1 0 2.5 0 a1.25 1.25 0 1 0 -2.5 0zM1373.75 195 a1.25 1.25 0 1 0 2.5 0 a1.25 1.25 0 1 0 -2.5 0zM1403.75 195 a1.25 1.25 0 1 0 2.5 0 a1.25 1.25 0 1 0 -2.5 0z" fill="black"></path><path d="M1173.75 405 a1.25 1.25 0 1 0 2.5 0 a1.25 1.25 0 1 0 -2.5 0zM1223.75 405 a1.25 1.25 0 1 0 2.5 0 a1.25 1.25 0 1 0 -2.5 0zM1253.75 395 a1.25 1.25 0 1 0 2.5 0 a1.25 1.25 0 1 0 -2.5 0z" fill="black"></path><path d="M1213.75 205 a1.25 1.25 0 1 0 2.5 0 a1.25 1.25 0 1 0 -2.5 0zM1163.75 195 a1.25 1.25 0 1 0 2.5 0 a1.25 1.25 0 1 0 -2.5 0zM1243.75 195 a1.25 1.25 0 1 0 2.5 0 a1.25 1.25 0 1 0 -2.5 0zM1413.75 195 a1.25 1.25 0 1 0 2.5 0 a1.25 1.25 0 1 0 -2.5 0zM1323.75 205 a1.25 1.25 0 1 0 2.5 0 a1.25 1.25 0 1 0 -2.5 0zM1333.75 205 a1.25 1.25 0 1 0 2.5 0 a1.25 1.25 0 1 0 -2.5 0zM1233.75 185 a1.25 1.25 0 1 0 2.5 0 a1.25 1.25 0 1 0 -2.5 0z" fill="black"></path><path d="M1123.75 425 a1.25 1.25 0 1 0 2.5 0 a1.25 1.25 0 1 0 -2.5 0zM1143.75 415 a1.25 1.25 0 1 0 2.5 0 a1.25 1.25 0 1 0 -2.5 0zM1153.75 415 a1.25 1.25 0 1 0 2.5 0 a1.25 1.25 0 1 0 -2.5 0zM1163.75 415 a1.25 1.25 0 1 0 2.5 0 a1.25 1.25 0 1 0 -2.5 0z" fill="black"></path><path d="M1053.75 165 a1.25 1.25 0 1 0 2.5 0 a1.25 1.25 0 1 0 -2.5 0zM1193.75 155 a1.25 1.25 0 1 0 2.5 0 a1.25 1.25 0 1 0 -2.5 0zM1233.75 175 a1.25 1.25 0 1 0 2.5 0 a1.25 1.25 0 1 0 -2.5 0zM1133.75 145 a1.25 1.25 0 1 0 2.5 0 a1.25 1.25 0 1 0 -2.5 0zM1253.75 155 a1.25 1.25 0 1 0 2.5 0 a1.25 1.25 0 1 0 -2.5 0zM1213.75 155 a1.25 1.25 0 1 0 2.5 0 a1.25 1.25 0 1 0 -2.5 0zM1013.75 165 a1.25 1.25 0 1 0 2.5 0 a1.25 1.25 0 1 0 -2.5 0zM1263.75 185 a1.25 1.25 0 1 0 2.5 0 a1.25 1.25 0 1 0 -2.5 0zM1123.75 185 a1.25 1.25 0 1 0 2.5 0 a1.25 1.25 0 1 0 -2.5 0zM1033.75 155 a1.25 1.25 0 1 0 2.5 0 a1.25 1.25 0 1 0 -2.5 0zM1113.75 135 a1.25 1.25 0 1 0 2.5 0 a1.25 1.25 0 1 0 -2.5 0z" fill="black"></path><path d="M1393.75 165 a1.25 1.25 0 1 0 2.5 0 a1.25 1.25 0 1 0 -2.5 0z" fill="black"></path><path d="M953.75 465 a1.25 1.25 0 1 0 2.5 0 a1.25 1.25 0 1 0 -2.5 0zM1263.75 425 a1.25 1.25 0 1 0 2.5 0 a1.25 1.25 0 1 0 -2.5 0zM1033.75 425 a1.25 1.25 0 1 0 2.5 0 a1.25 1.25 0 1 0 -2.5 0zM963.75 455 a1.25 1.25 0 1 0 2.5 0 a1.25 1.25 0 1 0 -2.5 0zM903.75 445 a1.25 1.25 0 1 0 2.5 0 a1.25 1.25 0 1 0 -2.5 0zM1273.75 425 a1.25 1.25 0 1 0 2.5 0 a1.25 1.25 0 1 0 -2.5 0zM1003.75 455 a1.25 1.25 0 1 0 2.5 0 a1.25 1.25 0 1 0 -2.5 0zM1293.75 425 a1.25 1.25 0 1 0 2.5 0 a1.25 1.25 0 1 0 -2.5 0zM963.75 435 a1.25 1.25 0 1 0 2.5 0 a1.25 1.25 0 1 0 -2.5 0zM1303.75 425 a1.25 1.25 0 1 0 2.5 0 a1.25 1.25 0 1 0 -2.5 0zM1313.75 425 a1.25 1.25 0 1 0 2.5 0 a1.25 1.25 0 1 0 -2.5 0zM1103.75 425 a1.25 1.25 0 1 0 2.5 0 a1.25 1.25 0 1 0 -2.5 0zM1033.75 455 a1.25 1.25 0 1 0 2.5 0 a1.25 1.25 0 1 0 -2.5 0z" fill="black"></path><path d="M1293.75 155 a1.25 1.25 0 1 0 2.5 0 a1.25 1.25 0 1 0 -2.5 0zM1373.75 165 a1.25 1.25 0 1 0 2.5 0 a1.25 1.25 0 1 0 -2.5 0zM1303.75 145 a1.25 1.25 0 1 0 2.5 0 a1.25 1.25 0 1 0 -2.5 0zM1353.75 145 a1.25 1.25 0 1 0 2.5 0 a1.25 1.25 0 1 0 -2.5 0z" fill="black"></path><path d="M1083.75 445 a1.25 1.25 0 1 0 2.5 0 a1.25 1.25 0 1 0 -2.5 0zM1103.75 455 a1.25 1.25 0 1 0 2.5 0 a1.25 1.25 0 1 0 -2.5 0zM1063.75 455 a1.25 1.25 0 1 0 2.5 0 a1.25 1.25 0 1 0 -2.5 0zM1323.75 425 a1.25 1.25 0 1 0 2.5 0 a1.25 1.25 0 1 0 -2.5 0zM1113.75 455 a1.25 1.25 0 1 0 2.5 0 a1.25 1.25 0 1 0 -2.5 0zM1123.75 455 a1.25 1.25 0 1 0 2.5 0 a1.25 1.25 0 1 0 -2.5 0zM1433.75 415 a1.25 1.25 0 1 0 2.5 0 a1.25 1.25 0 1 0 -2.5 0zM1133.75 455 a1.25 1.25 0 1 0 2.5 0 a1.25 1.25 0 1 0 -2.5 0zM1143.75 455 a1.25 1.25 0 1 0 2.5 0 a1.25 1.25 0 1 0 -2.5 0zM1213.75 445 a1.25 1.25 0 1 0 2.5 0 a1.25 1.25 0 1 0 -2.5 0z" fill="black"></path><path d="M1253.75 135 a1.25 1.25 0 1 0 2.5 0 a1.25 1.25 0 1 0 -2.5 0zM1353.75 125 a1.25 1.25 0 1 0 2.5 0 a1.25 1.25 0 1 0 -2.5 0zM1323.75 145 a1.25 1.25 0 1 0 2.5 0 a1.25 1.25 0 1 0 -2.5 0zM1273.75 115 a1.25 1.25 0 1 0 2.5 0 a1.25 1.25 0 1 0 -2.5 0zM1313.75 125 a1.25 1.25 0 1 0 2.5 0 a1.25 1.25 0 1 0 -2.5 0zM1343.75 115 a1.25 1.25 0 1 0 2.5 0 a1.25 1.25 0 1 0 -2.5 0z" fill="black"></path><path d="M813.75 465 a1.25 1.25 0 1 0 2.5 0 a1.25 1.25 0 1 0 -2.5 0zM963.75 485 a1.25 1.25 0 1 0 2.5 0 a1.25 1.25 0 1 0 -2.5 0zM943.75 495 a1.25 1.25 0 1 0 2.5 0 a1.25 1.25 0 1 0 -2.5 0zM1313.75 455 a1.25 1.25 0 1 0 2.5 0 a1.25 1.25 0 1 0 -2.5 0zM1233.75 455 a1.25 1.25 0 1 0 2.5 0 a1.25 1.25 0 1 0 -2.5 0zM1303.75 465 a1.25 1.25 0 1 0 2.5 0 a1.25 1.25 0 1 0 -2.5 0zM863.75 475 a1.25 1.25 0 1 0 2.5 0 a1.25 1.25 0 1 0 -2.5 0zM913.75 475 a1.25 1.25 0 1 0 2.5 0 a1.25 1.25 0 1 0 -2.5 0zM1073.75 475 a1.25 1.25 0 1 0 2.5 0 a1.25 1.25 0 1 0 -2.5 0zM1313.75 475 a1.25 1.25 0 1 0 2.5 0 a1.25 1.25 0 1 0 -2.5 0zM1293.75 485 a1.25 1.25 0 1 0 2.5 0 a1.25 1.25 0 1 0 -2.5 0zM1223.75 445 a1.25 1.25 0 1 0 2.5 0 a1.25 1.25 0 1 0 -2.5 0zM793.75 455 a1.25 1.25 0 1 0 2.5 0 a1.25 1.25 0 1 0 -2.5 0zM793.75 475 a1.25 1.25 0 1 0 2.5 0 a1.25 1.25 0 1 0 -2.5 0zM1093.75 485 a1.25 1.25 0 1 0 2.5 0 a1.25 1.25 0 1 0 -2.5 0zM843.75 455 a1.25 1.25 0 1 0 2.5 0 a1.25 1.25 0 1 0 -2.5 0zM1153.75 455 a1.25 1.25 0 1 0 2.5 0 a1.25 1.25 0 1 0 -2.5 0z" fill="black"></path></mask></defs></svg>